<?xml version="1.0" encoding="UTF-8" standalone="no"?>
<!-- Created with Inkscape (http://www.inkscape.org/) -->

<svg
   xmlns:osb="http://www.openswatchbook.org/uri/2009/osb"
   xmlns:dc="http://purl.org/dc/elements/1.1/"
   xmlns:cc="http://creativecommons.org/ns#"
   xmlns:rdf="http://www.w3.org/1999/02/22-rdf-syntax-ns#"
   xmlns:svg="http://www.w3.org/2000/svg"
   xmlns="http://www.w3.org/2000/svg"
   xmlns:xlink="http://www.w3.org/1999/xlink"
   xmlns:sodipodi="http://sodipodi.sourceforge.net/DTD/sodipodi-0.dtd"
   xmlns:inkscape="http://www.inkscape.org/namespaces/inkscape"
   width="72mm"
   height="100mm"
   viewBox="0 0 72 100"
   version="1.1"
   id="SVGRoot"
   inkscape:version="0.92.3 (2405546, 2018-03-11)"
   sodipodi:docname="PATTERN_ORDINE.svg"
   inkscape:export-filename="/home/mitch/Desktop/PATTERN_ORDINE.svg.png"
   inkscape:export-xdpi="300"
   inkscape:export-ydpi="300">
  <sodipodi:namedview
     id="base"
     pagecolor="#ffffff"
     bordercolor="#666666"
     borderopacity="1.0"
     inkscape:pageopacity="0.0"
     inkscape:pageshadow="2"
     inkscape:zoom="2"
     inkscape:cx="-4.047666"
     inkscape:cy="261.88973"
     inkscape:document-units="mm"
     inkscape:current-layer="Livello_2"
     showgrid="false"
     inkscape:window-width="1920"
     inkscape:window-height="996"
     inkscape:window-x="0"
     inkscape:window-y="28"
     inkscape:window-maximized="1" />
  <defs
     id="defs59">
    <linearGradient
       id="linearGradient5329"
       osb:paint="solid">
      <stop
         style="stop-color:#000000;stop-opacity:1;"
         offset="0"
         id="stop5327" />
    </linearGradient>
    <linearGradient
       inkscape:collect="always"
       xlink:href="#linearGradient5329"
       id="linearGradient5337"
       gradientUnits="userSpaceOnUse"
       x1="114.29"
       y1="67.404612"
       x2="285.66531"
       y2="67.404612" />
    <linearGradient
       inkscape:collect="always"
       xlink:href="#linearGradient5329"
       id="linearGradient5339"
       gradientUnits="userSpaceOnUse"
       x1="114.29"
       y1="67.404612"
       x2="285.66531"
       y2="67.404612" />
  </defs>
  <metadata
     id="metadata62">
    <rdf:RDF>
      <cc:Work
         rdf:about="">
        <dc:format>image/svg+xml</dc:format>
        <dc:type
           rdf:resource="http://purl.org/dc/dcmitype/StillImage" />
        <dc:title />
      </cc:Work>
    </rdf:RDF>
  </metadata>
  <g
     id="layer1"
     inkscape:groupmode="layer"
     inkscape:label="Layer 1">
    <path
       id="path86"
       transform="scale(0.26458333)"
       style="fill:#000000;stroke-width:0.18274771"
       d="M 21.669922,5.3085938 C 19.114606,5.2942354 15.219468,6.1456519 13.40625,7.3046875 10.428243,9.2082655 9.2304686,12.196295 9.2304688,17.722656 v 2.53125 L 8.3378906,20.707031 C 6.6519681,21.561352 5.7082705,23.17009 6.03125,24.640625 c 0.086929,0.395845 -0.00574,0.82042 -0.3320312,1.511719 -0.9143509,1.93759 -1.1188147,2.979098 -1.1210938,5.71289 -0.00311,3.713866 0.7446625,6.553292 2.4921875,9.458985 0.9944428,1.653501 0.9458523,2.43037 -0.2714844,4.207031 -0.9603477,1.401604 -1.2849912,2.36234 -1.671875,4.949219 -0.2127496,1.422621 -0.3910382,1.989822 -0.84375,2.695312 -0.7860737,1.224987 -1.265625,2.872323 -1.265625,4.345703 0,2.328148 1.209825,3.827032 3.3359375,4.136719 l 0.8671875,0.126953 v 1.345703 c 0,0.989893 0.1209557,1.667683 0.4570313,2.560547 0.6178771,1.641547 0.5937458,2.804016 -0.1015625,4.97461 C 6.5977694,73.720392 6.8760895,75.27679 8.5800781,76.275391 9.3311799,76.71557 9.3688334,76.780006 9.5703125,78 c 0.3675969,2.22587 0.2930683,2.840993 -0.5136719,4.240234 -1.3111634,2.274184 -1.3222966,3.171702 -0.042969,3.683594 0.7585209,0.303496 3.0215524,0.515796 3.9628904,0.373047 1.473321,-0.223446 2.445141,-0.630309 2.996094,-1.257813 0.842385,-0.959423 0.829313,-1.883969 -0.04101,-2.792968 -0.576386,-0.601977 -0.578125,-0.610689 -0.578125,-2.576172 v -1.972656 l 0.880859,-0.607422 c 0.895525,-0.617401 1.783277,-1.725434 2.044922,-2.552735 0.07948,-0.251263 0.130377,-1.186496 0.111328,-2.078125 -0.03802,-1.780932 0.28292,-3.199691 0.896484,-3.953125 l 0.373047,-0.457031 -0.142578,0.730469 c -0.187616,0.958575 -0.183632,3.78437 0.0078,4.912109 0.184478,1.086758 0.775407,1.757054 1.435547,1.63086 0.347374,-0.06641 0.570676,0.05159 0.941406,0.492187 0.64377,0.765075 0.619008,1.317003 -0.152344,3.291016 -1.18255,3.026298 -1.062259,3.154597 3.654297,3.921875 0.9046,0.147175 2.364169,0.558908 3.242187,0.914062 1.908692,0.772052 3.286513,0.847749 5.126954,0.279297 1.607158,-0.496399 1.969723,-0.822717 2.08789,-1.871094 0.0861,-0.763797 0.04044,-0.906822 -0.443359,-1.390625 -0.674937,-0.674933 -1.597605,-0.938149 -3.302735,-0.939453 -2.609219,-0.002 -3.146484,-0.609562 -3.146484,-3.558593 V 74.71875 h 0.806641 c 0.654398,0 0.913707,-0.105112 1.357421,-0.548828 1.107867,-1.10787 1.375508,-3.433692 0.56836,-4.933594 -0.515267,-0.957498 -0.699576,-2.891369 -0.371094,-3.886719 0.114558,-0.347149 0.540328,-1.07373 0.947266,-1.615234 0.406938,-0.5415 0.967629,-1.484604 1.246094,-2.09375 0.712011,-1.55754 1.218043,-1.90625 2.751953,-1.90625 2.041374,0 3.236501,-0.643533 3.677734,-1.980469 0.113856,-4.150805 -0.405671,-9.698194 -3.105475,-12.78125 -1.218021,-1.334494 -2.214843,-2.541696 -2.214844,-2.68164 0,-0.139956 0.419731,-0.713327 0.931641,-1.273438 1.04894,-1.147706 1.626953,-2.455685 1.626953,-3.679687 0,-1.611394 -1.163162,-3.004306 -2.511718,-3.00586 -1.033127,-0.0011 -1.326642,-0.494638 -1.324219,-2.238281 -0.547366,-2.785588 1.842954,-6.721601 0.115234,-9.292969 -0.163507,-0.243348 -0.578065,-0.236861 -0.818359,-0.322265 -0.198577,-0.127975 -0.17305,-0.29902 0.136718,-0.90625 0.491384,-0.963194 0.483253,-1.522709 -0.0293,-1.970704 -0.226167,-0.197742 -0.551814,-0.56298 -0.72461,-0.810546 l -0.314453,-0.449219 -0.46875,0.519531 c -0.595487,0.660597 -0.929873,0.530136 -1.193359,-0.464844 -0.114482,-0.432351 -0.414447,-1.00335 -0.666016,-1.269531 -0.376932,-0.398804 -0.421885,-0.550823 -0.257812,-0.857422 0.338834,-0.633078 0.223208,-1.089295 -0.441407,-1.753906 -0.351798,-0.351798 -0.638672,-0.748481 -0.638671,-0.880859 0,-0.132397 0.286865,-0.68639 0.638671,-1.232422 1.10295,-1.711658 0.753846,-2.4967193 -1.027343,-2.310547 l -1.04881,0.109375 -0.220704,-0.6816408 C 25.792089,7.6524637 24.768253,6.2021076 23.652344,5.6328125 23.225153,5.4148764 22.521694,5.3133797 21.669922,5.3085938 Z M 22.751953,8.59375 c 0.686219,0.036619 1.33819,0.2488513 1.960938,0.6347656 0.465195,0.2882646 0.877377,0.6194085 0.916015,0.7363282 0.04131,0.1250272 -0.365834,0.3385792 -0.988281,0.5195312 -1.337582,0.388845 -1.920409,0.68489 -3.130859,1.587891 -1.142181,0.852075 -2.430971,2.533375 -2.88086,3.755859 -0.411961,1.119424 -0.419159,1.125288 -1.470703,1.414063 -1.491655,0.409634 -1.663319,0.370544 -1.751953,-0.388672 -0.124838,-1.069425 0.184511,-2.773894 0.683594,-3.767578 C 16.806771,11.658572 17.542093,10.848154 19,9.8730469 20.367407,8.9584697 21.608254,8.5327176 22.751953,8.59375 Z m 0.742188,4.380859 c 0.256028,0.01156 0.52268,0.06305 0.80664,0.152344 0.406099,0.12771 1.091389,0.222324 1.523438,0.208985 0.726678,-0.02268 0.866467,0.05626 1.867187,1.050781 1.069312,1.062693 1.084105,1.089478 1.185547,2.322265 0.07842,0.953042 0.213011,1.390926 0.570313,1.859375 0.636842,0.834943 0.473878,1.142578 -0.59961,1.142579 -0.633528,0 -0.974301,-0.104471 -1.285156,-0.396485 -0.401647,-0.377348 -0.421225,-0.378862 -0.421875,-0.04492 -3.67e-4,0.193399 -0.164138,0.618652 -0.363281,0.945313 -0.425756,0.698286 -0.884745,0.755476 -1.75,0.220703 -0.37183,-0.229833 -0.646977,-0.575562 -0.71875,-0.902344 -0.113802,-0.51812 -0.122962,-0.521592 -0.458985,-0.185547 -0.435345,0.435341 -1.415587,0.622094 -2.451171,0.466797 -0.878635,-0.131754 -1.305742,-0.482953 -1.132813,-0.933594 0.07638,-0.199105 0.01148,-0.278196 -0.208984,-0.255859 -0.679507,0.0689 -0.952348,-0.02414 -1.148438,-0.390625 -0.167471,-0.312907 -0.121312,-0.499545 0.257813,-1.050781 0.253568,-0.368655 0.619381,-1.039884 0.8125,-1.492188 0.193133,-0.4523 0.762931,-1.207013 1.267578,-1.677734 0.801405,-0.74753 1.479961,-1.07375 2.248047,-1.039063 z m 3.691406,3.082032 c -0.125632,-3.63e-4 -0.228516,0.164239 -0.228516,0.365234 0,0.270539 0.121718,0.365234 0.46875,0.365234 0.257877,0 0.627851,0.0854 0.822266,0.189453 0.24514,0.131188 0.353515,0.131181 0.353515,-0.002 0,-0.220308 -1.0741,-0.916944 -1.416015,-0.917968 z m -4.326172,0.261718 c -0.140994,0.01655 -0.34744,0.09462 -0.675781,0.242188 -0.76794,0.345146 -1.774983,1.230876 -1.59961,1.40625 0.04637,0.04638 0.327536,-0.0785 0.625,-0.277344 0.297449,-0.198841 0.889233,-0.452168 1.316407,-0.5625 0.81267,-0.209877 0.871596,-0.273181 0.615234,-0.677734 -0.06431,-0.101499 -0.140256,-0.147405 -0.28125,-0.13086 z m -4.697266,1.240235 c 0.316488,0.0096 0.304058,0.312133 0.0293,0.953125 -1.086735,2.535254 -0.709964,5.036897 0.800782,5.320312 0.344464,0.06463 1.447818,0.08946 2.453124,0.05469 1.719413,-0.05953 1.877832,-0.09755 2.669922,-0.65625 C 25.112495,22.527038 26.149266,22.39932 25.992188,23 c -0.08232,0.314797 -0.0303,0.350334 0.388671,0.251953 0.266873,-0.06266 0.525916,-0.119217 0.576172,-0.125 0.05027,-0.0057 0.420222,0.132543 0.822266,0.308594 1.121824,0.491274 2.264537,0.565112 3.449219,0.220703 0.573036,-0.166602 1.11167,-0.259945 1.197265,-0.207031 0.410442,0.253682 0.79472,2.492446 0.699219,4.070312 -0.08519,1.407708 -0.721483,3.803515 -1.115234,4.197266 -0.05605,0.05605 -0.363865,-0.117681 -0.683594,-0.386719 -0.440088,-0.370318 -0.740616,-0.475391 -1.238281,-0.433594 -0.651368,0.05469 -0.65719,0.06103 -0.601563,0.81836 0.03099,0.42034 -0.04263,0.954515 -0.164062,1.1875 -0.260221,0.499188 -1.451103,2.160156 -1.548828,2.160156 -0.03704,0 -0.279791,-0.211435 -0.539063,-0.470703 -0.536572,-0.536576 -3.177977,-1.819486 -5.210937,-2.53125 l -1.371094,-0.480469 0.599609,0.478516 c 0.721236,0.577084 1.320313,1.688704 1.320313,2.449218 0,0.672605 -0.07145,0.682702 -0.759766,0.103516 -0.295748,-0.248844 -0.965437,-0.599037 -1.488281,-0.777344 -0.522837,-0.178318 -1.352981,-0.529851 -1.845703,-0.78125 -1.510318,-0.770589 -2.59585,-2.774218 -2.697266,-4.980468 l -0.03906,-0.867188 h -1.427735 c -1.167689,0 -1.427734,-0.05159 -1.427734,-0.283203 0,-0.508014 0.569858,-1.435424 1.425781,-2.318359 l 0.839844,-0.867188 -0.525391,-0.546875 c -0.494566,-0.516215 -0.506977,-0.566278 -0.21875,-0.884765 0.168114,-0.185764 0.508044,-0.929483 0.753906,-1.652344 0.578041,-1.69951 1.066694,-2.365061 2.060547,-2.804688 0.441267,-0.195193 0.749561,-0.294795 0.939453,-0.289062 z m 0.3125,1.787109 c 0.0483,0 0.563252,0.239768 1.144532,0.533203 1.384803,0.699047 2.10005,0.817089 3.460937,0.570313 1.077468,-0.195402 1.153997,-0.182938 1.861328,0.285156 0.4056,0.268422 0.736328,0.544795 0.736328,0.615234 0,0.07045 -0.965476,0.593975 -2.146484,1.16211 -2.171089,1.044419 -2.991897,1.225529 -3.757812,0.832031 -0.516976,-0.265587 -1.384886,-1.071668 -1.619141,-1.503906 -0.170041,-0.313777 -0.125535,-0.327913 0.609375,-0.205078 0.787347,0.131565 0.790977,0.129542 0.460937,-0.238282 -0.315174,-0.351231 -0.936652,-2.050781 -0.75,-2.050781 z m 13.728516,0.433594 c 0.02986,0.02986 -0.144088,0.446552 -0.386719,0.925781 l -0.441406,0.871094 0.441406,-0.08398 c 0.560757,-0.107188 0.573819,0.227444 0.0293,0.720703 -0.547786,0.496108 -1.070416,0.776426 -1.464844,0.783203 -0.177902,0.0031 -1.042457,-0.360637 -1.919921,-0.808594 -2.249092,-1.148179 -2.184538,-1.081171 -1.431641,-1.525391 0.582788,-0.343861 0.752122,-0.363107 1.707031,-0.185547 0.972352,0.180813 1.158339,0.158096 2.236328,-0.277343 0.646625,-0.261203 1.200562,-0.44983 1.230469,-0.419922 z M 10.966797,20.75 c 0.300363,0.02246 0.402472,0.204878 0.457031,0.556641 0.0771,0.497098 0.249561,0.667588 1.097656,1.095703 1.247596,0.629767 1.545714,1.24733 0.976563,2.015625 -0.543542,0.733727 -1.53524,1.350117 -2.080078,1.292969 -0.26744,-0.02797 -0.706296,0.125471 -1.009766,0.351562 C 9.778844,26.531347 9.100649,26.576642 8.2207031,26.208984 7.5233954,25.917621 7.4149017,25.520188 7.8613281,24.882812 8.1173911,24.517259 8.1089006,24.48413 7.7324219,24.429688 7.2483702,24.359688 7.1056101,23.882138 7.1933594,22.626953 7.2501274,21.814767 7.3078971,21.709785 7.7421875,21.619141 8.008871,21.563468 8.7191966,21.351305 9.3222656,21.148438 10.167854,20.863986 10.666434,20.72754 10.966797,20.75 Z m 4.353515,10.507812 c 0.267168,0.123075 1.384687,1.338738 2.152344,2.371094 0.996843,1.340572 1.520976,1.638757 3.548828,2.023438 0.651837,0.123666 1.185547,0.297437 1.185547,0.386718 0,0.283163 -3.509111,0.03738 -4.125,-0.289062 -0.348208,-0.184479 -0.691075,-0.595604 -0.904297,-1.085938 -0.188787,-0.434095 -0.696218,-1.347711 -1.128906,-2.029296 -0.432684,-0.681585 -0.787109,-1.292538 -0.787109,-1.359375 0,-0.03073 0.02043,-0.03516 0.05859,-0.01758 z m 16.626954,2.628907 c 0.913306,-0.134312 0.586864,1.026193 -0.775391,2.144531 -0.520823,0.427567 -0.399263,0.753882 0.308594,0.824219 0.462758,0.046 0.725523,-0.09849 1.447265,-0.792969 0.803853,-0.773495 0.944694,-0.841567 1.582032,-0.757812 1.234964,0.16229 2.064163,1.347083 1.853515,2.646484 -0.304025,1.87533 -0.972575,2.739605 -2.93164,3.78125 -1.047357,0.556883 -1.505457,0.568967 -2.953125,0.08008 l -1.119141,-0.378906 -0.375,0.375 c -0.287735,0.287697 -0.513103,0.346883 -0.972656,0.259765 -0.839233,-0.159042 -1.015906,-0.343187 -1.328125,-1.394531 -0.545087,-1.835501 -0.210499,-2.6875 1.05664,-2.6875 0.460215,0 0.578771,-0.130522 1.042969,-1.154297 0.568124,-1.25297 1.63209,-2.360445 2.695313,-2.804687 0.181707,-0.07592 0.338277,-0.121438 0.46875,-0.140625 z m -25.3867191,1.90625 c 0.050532,0 0.9907496,1.173187 2.0898437,2.605469 2.0369274,2.654424 3.5672574,4.263026 4.8750004,5.123046 1.05541,0.694073 2.561947,1.023046 5.572265,1.220704 1.458161,0.09574 2.933774,0.259091 3.277344,0.361328 0.700071,0.208365 2.023436,1.032344 2.023438,1.259765 0,0.08137 -0.595511,-0.05729 -1.324219,-0.308593 -1.153104,-0.397713 -1.762678,-0.472017 -4.705078,-0.574219 -3.679499,-0.127786 -3.914069,-0.184355 -5.824219,-1.40625 l -0.998047,-0.638672 -1.6484375,0.46875 C 8.99188,44.163081 8.2343944,44.357164 8.2167969,44.333984 8.1990331,44.310929 8.1331027,43.695867 8.0683594,42.96875 L 7.9492188,41.646484 8.7734375,41.439453 c 0.4528517,-0.114028 0.8242189,-0.248598 0.8242187,-0.298828 0,-0.05023 -0.6680424,-1.211918 -1.484375,-2.582031 -0.8163361,-1.370112 -1.5205085,-2.551567 -1.5644531,-2.626953 -0.043956,-0.07536 -0.038927,-0.138672 0.011719,-0.138672 z m 19.4570311,0.02148 c 0.240535,-0.01208 0.466973,-0.0095 0.660156,0.0078 0.257578,0.02304 0.456318,0.07461 0.554688,0.15625 0.457387,0.379596 0.328071,1.157534 -0.291016,1.746093 -0.864313,0.821737 -1.133669,1.470837 -1.035156,2.496094 0.136403,1.419538 1.48347,2.517578 3.087891,2.517578 0.651843,0 1.253906,0.495838 1.253906,1.033203 0,0.627251 -0.658987,1.511015 -1.351563,1.8125 -0.855307,0.372322 -3.157577,0.323089 -4.041015,-0.08594 -2.021084,-0.935732 -2.953708,-3.351356 -2.478516,-6.414063 0.262488,-1.691696 0.636335,-2.36508 1.570313,-2.826172 0.496013,-0.244873 1.348707,-0.407107 2.070312,-0.443359 z m 7.871094,8.384766 c 0.07892,0 0.558884,0.439937 1.066406,0.976562 1.334211,1.410735 2.268602,3.419893 2.675781,5.753907 l 0.105469,0.605468 -1.048828,-0.126953 c -0.576847,-0.06988 -1.110164,-0.161424 -1.185547,-0.205078 -0.07536,-0.04362 -0.138672,-0.366703 -0.138672,-0.716797 0,-0.975152 -0.518629,-3.272805 -1.097656,-4.859375 -0.286526,-0.785087 -0.455873,-1.427734 -0.376953,-1.427734 z m -12.09375,5.880859 c 1.06985,-0.05396 2.139203,0.127771 3.517578,0.529297 1.603574,0.467123 2.400206,0.582645 4.84375,0.703125 2.697373,0.133002 2.999769,0.184434 3.896484,0.654297 0.8887,0.465672 1.084801,0.498777 2.294922,0.396484 1.507653,-0.127445 2.581701,0.101242 2.851563,0.605469 0.101707,0.190035 0.184576,0.904785 0.183593,1.589844 -0.0019,1.34824 -0.450667,2.584534 -1.382812,3.80664 l -0.486328,0.636719 h -1.623047 c -1.317611,0 -1.940172,-0.104371 -3.3125,-0.556641 -1.648944,-0.543441 -4.368069,-1.040297 -8.111328,-1.484374 -1.631796,-0.193588 -2.068595,-0.180703 -3.681641,0.115234 -1.200268,0.220233 -2.227234,0.300907 -2.982422,0.232422 -1.02511,-0.09294 -1.206224,-0.05807 -1.658203,0.322265 -0.279231,0.234974 -1.354,0.692845 -2.386719,1.017579 -1.685191,0.529899 -7.1767532,2.118704 -7.4804682,2.164062 -0.066709,0.0098 -0.5450262,-0.76861 -1.0625,-1.728516 -0.5174703,-0.959905 -1.0487563,-2.053061 -1.1816407,-2.429687 -0.3572409,-1.01252 -0.034889,-1.470936 1.6738281,-2.384766 0.7826155,-0.418541 1.9164623,-1.044756 2.5195313,-1.390625 1.4585046,-0.83647 3.0437405,-1.170579 6.1738285,-1.302734 2.242125,-0.09468 2.772688,-0.178164 3.876953,-0.611328 1.37801,-0.540563 2.447727,-0.830801 3.517578,-0.884766 z m 9.046875,19.580082 c 0.618965,-0.0168 0.682427,0.420726 0.611328,1.796875 -0.113802,2.202278 -0.668866,2.775429 -2.917969,3.00586 -0.666028,0.06822 -1.35509,0.233467 -1.53125,0.367187 -0.513966,0.390134 -1.300447,0.294869 -2.630859,-0.318359 l -1.242188,-0.572266 -0.908203,0.388672 c -1.345164,0.578676 -1.805613,0.525721 -2.128906,-0.248047 -0.368504,-0.881998 -0.532671,-3.159266 -0.275391,-3.818359 l 0.205079,-0.527344 1.136718,0.162109 c 1.808172,0.25852 7.74673,0.200708 8.863282,-0.08594 0.345319,-0.08866 0.612037,-0.144791 0.818359,-0.150391 z M 9.1621094,71.117188 c 0.3387141,0.01772 0.744266,0.05782 1.1367186,0.115234 0.78491,0.114784 2.577457,0.196343 3.984375,0.18164 2.827314,-0.02948 3.616552,0.178476 3.826172,1.013672 0.211162,0.841338 -1.067076,3.724487 -1.810547,4.083985 -0.517757,0.250356 -0.632846,0.247036 -1.445312,-0.04297 -0.375799,-0.134135 -1.034618,-0.2057 -1.462891,-0.160156 -0.584243,0.0621 -0.996169,-0.03051 -1.652344,-0.367188 -0.74036,-0.380054 -1.050966,-0.433387 -2.0214841,-0.355468 -1.1125342,0.08931 -1.1614045,0.07307 -1.6386719,-0.494141 -0.4096441,-0.486837 -0.4921875,-0.759762 -0.4921875,-1.638672 0,-1.397677 0.2842552,-2.17988 0.84375,-2.320313 0.1214551,-0.03048 0.3937077,-0.03335 0.7324219,-0.01562 z" />
    <g
       style="display:none"
       id="Livello_1"
       class="st0"
       transform="matrix(0.03606961,0,0,0.03606961,-3.8946085,-3.3963922)" />
    <g
       transform="matrix(0.03606961,0,0,0.03606961,10.726675,-3.0353084)"
       id="Livello_2">
      <flowRoot
         xml:space="preserve"
         id="flowRoot4723"
         style="fill:black;fill-opacity:1;stroke:none;font-family:'Ink Free';font-style:normal;font-weight:normal;font-size:40px;line-height:1.25;letter-spacing:0px;word-spacing:0px;-inkscape-font-specification:'Ink Free';font-stretch:normal;font-variant:normal;"><flowRegion
           id="flowRegion4725"
           style="-inkscape-font-specification:'Ink Free';font-family:'Ink Free';font-weight:normal;font-style:normal;font-stretch:normal;font-variant:normal;"><rect
             id="rect4727"
             width="158.53664"
             height="76.841469"
             x="95.520714"
             y="50.436371"
             style="-inkscape-font-specification:'Ink Free';font-family:'Ink Free';font-weight:normal;font-style:normal;font-stretch:normal;font-variant:normal;" /></flowRegion><flowPara
           id="flowPara4729" /></flowRoot>      <g
         aria-label="Assemblea di Natale"
         transform="matrix(7.3353533,0,0,7.3353533,-474.57068,78.39902)"
         style="font-style:normal;font-weight:normal;font-size:20px;line-height:1.25;font-family:sans-serif;letter-spacing:0px;word-spacing:0px;fill:#000000;fill-opacity:1;stroke:url(#linearGradient5339)"
         id="flowRoot4731">
        <path
           d="m 125.97,67.524612 q 0,0.14 -0.08,0.3 -0.06,0.16 -0.18,0.24 -0.14,0.12 -0.58,0.22 -0.44,0.08 -0.6,0.1 0.16,0.76 0.16,0.74 0.14,0.5 0.3,1.38 0.36,2.02 0.74,3.44 0.1,0.46 0.1,0.54 0,0.2 -0.16,0.34 -0.16,0.14 -0.38,0.14 -0.2,0 -0.36,-0.22 -0.16,-0.2 -0.22,-0.36 -0.18,-0.68 -0.34,-1.52 -0.14,-0.84 -0.34,-2.02 -0.08,-0.52 -0.26,-1.28 -0.18,-0.78 -0.24,-1.02 -1.18,0.16 -4.06,0.64 l -1.16,0.2 -0.42,1.18 -0.56,1.6 q -0.7,2.18 -1,3.36 -0.06,0.28 -0.24,0.46 -0.18,0.2 -0.44,0.2 -0.22,0 -0.38,-0.12 -0.14,-0.12 -0.14,-0.34 0,-0.22 0.24,-0.94 0.24,-0.7 0.28,-0.84 0.08,-0.2 0.32,-0.92 0.26,-0.78 0.66,-1.88 0.42,-1.12 0.56,-1.48 -1.02,0.24 -1.52,0.38 -0.76,0.2 -0.94,0.2 -0.22,0 -0.34,-0.16 -0.1,-0.18 -0.1,-0.38 0,-0.24 0.12,-0.32 0.12,-0.1 0.4,-0.18 0.76,-0.18 1.6,-0.36 0.86,-0.18 1.18,-0.24 0.2,-0.58 0.3,-0.98 0.08,-0.26 0.2,-0.64 0.14,-0.4 0.3,-0.98 l 0.3,-1.02 q 0.76,-2.68 0.88,-3.06 0.1,-0.28 0.18,-0.44 0.1,-0.16 0.26,-0.16 0.4,0 0.72,0.12 0.04,-0.04 0.12,-0.16 0.1,-0.14 0.2,-0.18 0.12,-0.06 0.3,-0.06 0.36,0 0.82,0.82 0.48,0.82 0.92,1.94 0.26,0.66 0.66,1.98 0.4,1.3 0.52,1.72 0.3,-0.04 0.5,-0.1 0.22,-0.08 0.28,-0.1 0.1,-0.04 0.22,-0.14 0.12,-0.1 0.22,-0.14 0.1,-0.06 0.22,0 0.26,0.12 0.26,0.5 z m -2.62,0.14 q -0.1,-0.36 -0.42,-1.5 -0.32,-1.16 -0.6,-1.88 -0.28,-0.74 -0.72,-1.52 -0.44,-0.78 -0.74,-0.98 l -0.22,0.52 q -0.38,0.76 -0.58,1.38 -0.48,1.44 -1.52,4.76 l 2.34,-0.4 1.92,-0.3 z"
           style="font-style:normal;font-variant:normal;font-weight:normal;font-stretch:normal;font-size:20px;font-family:'Ink Free';-inkscape-font-specification:'Ink Free';stroke:url(#linearGradient5337)"
           id="path5388" />
        <path
           d="m 134.89187,70.964612 q 0,0.88 -0.72,1.7 -0.7,0.8 -1.86,1.28 -1.16,0.5 -2.42,0.5 -0.85999,0 -1.16,-0.16 -0.3,-0.16 -0.3,-0.44 0,-0.18 0.46,-0.62 0.46,-0.46 0.62,-0.46 0.24,0 0.24,0.1 0,0.08 -0.1,0.16 -0.1,0.08 -0.1,0.14 0,0.08 0.24,0.16 0.26,0.08 0.62,0.08 0.84,0 1.68,-0.3 0.86,-0.32 1.4,-0.82 0.54001,-0.5 0.54001,-1.06 0,-0.54 -0.34001,-0.86 -0.34,-0.32 -0.86,-0.46 -0.5,-0.16 -1.7,-0.44 -1.32,-0.3 -2.06,-0.52 -0.72,-0.24 -1.16,-0.58 -0.44,-0.36 -0.44,-0.9 0,-0.96 0.94,-1.76 0.94,-0.8 2.16,-1.26 1.22,-0.46 1.88,-0.46 0.68,0 0.68,0.4 0,0.24 -0.16,0.54 -0.16,0.28 -0.48,0.28 -0.12,0 -0.26,-0.08 -0.14,-0.1 -0.28,-0.1 -0.4,0 -1.26,0.26 -0.86,0.26 -1.56,0.78 -0.7,0.52 -0.7,1.26 0,0.48 0.54,0.72 0.56001,0.22 2.06001,0.56 0.17999,0.06 0.35999,0.1 0.18,0.02 0.32,0.06 1.54,0.36 2.36,0.82 0.82,0.46 0.82,1.38 z"
           style="font-style:normal;font-variant:normal;font-weight:normal;font-stretch:normal;font-size:20px;font-family:'Ink Free';-inkscape-font-specification:'Ink Free';stroke:url(#linearGradient5337)"
           id="path5390" />
        <path
           d="m 143.79812,70.964612 q 0,0.88 -0.72,1.7 -0.7,0.8 -1.86,1.28 -1.16,0.5 -2.42,0.5 -0.85999,0 -1.16,-0.16 -0.3,-0.16 -0.3,-0.44 0,-0.18 0.46,-0.62 0.46,-0.46 0.62,-0.46 0.24,0 0.24,0.1 0,0.08 -0.1,0.16 -0.1,0.08 -0.1,0.14 0,0.08 0.24,0.16 0.26,0.08 0.62,0.08 0.84,0 1.68,-0.3 0.86,-0.32 1.4,-0.82 0.54001,-0.5 0.54001,-1.06 0,-0.54 -0.34001,-0.86 -0.34,-0.32 -0.86,-0.46 -0.5,-0.16 -1.7,-0.44 -1.32,-0.3 -2.06,-0.52 -0.72,-0.24 -1.16,-0.58 -0.44,-0.36 -0.44,-0.9 0,-0.96 0.94,-1.76 0.94,-0.8 2.16,-1.26 1.22,-0.46 1.88,-0.46 0.68,0 0.68,0.4 0,0.24 -0.16,0.54 -0.16,0.28 -0.48,0.28 -0.12,0 -0.26,-0.08 -0.14,-0.1 -0.28,-0.1 -0.4,0 -1.26,0.26 -0.86,0.26 -1.56,0.78 -0.7,0.52 -0.7,1.26 0,0.48 0.54,0.72 0.56001,0.22 2.06001,0.56 0.17999,0.06 0.35999,0.1 0.18,0.02 0.32,0.06 1.54,0.36 2.36,0.82 0.82,0.46 0.82,1.38 z"
           style="font-style:normal;font-variant:normal;font-weight:normal;font-stretch:normal;font-size:20px;font-family:'Ink Free';-inkscape-font-specification:'Ink Free';stroke:url(#linearGradient5337)"
           id="path5392" />
        <path
           d="m 153.06437,68.664612 q 0.14,0 0.14,0.3 0,0.36 -0.54,1.58 -0.52,1.22 -1.6,2.26 -1.06,1.04 -2.62,1.04 -1.28,0 -2.14,-0.8 -0.86,-0.8 -0.86,-2.46 0,-1.56 0.72,-3.08 0.72,-1.54 1.88,-2.5 1.16,-0.98 2.4,-0.98 0.74,0 1.24,0.34 0.52,0.32 0.52,0.94 0,0.7 -0.8,1.36 -0.78,0.66 -2.04,1.16 -1.26,0.5 -2.6,0.72 -0.24,0.92 -0.24,1.8 0,1.16 0.54,1.8 0.56,0.64 1.58,0.64 1.54,0 2.5,-1.1 0.96,-1.1 1.6,-2.48 0.04,-0.08 0.14,-0.3 0.1,-0.24 0.18,-0.24 z m -1.76,-3.14 q 0,-0.32 -0.34,-0.5 -0.32,-0.18 -0.76,-0.18 -0.76,0 -1.46,0.5 -0.7,0.5 -1.18,1.2 -0.46,0.7 -0.6,1.24 0.92,-0.1 1.94,-0.52 1.02,-0.42 1.7,-0.92 0.7,-0.5 0.7,-0.82 z"
           style="font-style:normal;font-variant:normal;font-weight:normal;font-stretch:normal;font-size:20px;font-family:'Ink Free';-inkscape-font-specification:'Ink Free';stroke:url(#linearGradient5337)"
           id="path5394" />
        <path
           d="m 167.42125,73.564612 q 0,0.24 -0.16,0.4 -0.16,0.18 -0.42,0.18 -0.36,0 -0.36,-0.36 0,-4.04 -0.26,-6.18 -0.26,-2.16 -0.9,-2.16 -1.08,0 -3.16,7.54 v 0.02 q 0,0.24 -0.16,0.42 -0.16,0.16 -0.42,0.16 -0.36,0 -0.36,-0.36 0,-0.8 0.08,-2.48 0.08,-1.88 0.08,-2.96 0,-1.5 -0.1,-2.12 -0.08,-0.64 -0.38,-0.64 -0.68,0 -1.72,2.5 -1.04,2.48 -2.18,5.86 l -0.18,0.52 q -0.08,0.2 -0.24,0.34 -0.14,0.14 -0.32,0.14 -0.24,0 -0.32,-0.04 -0.08,-0.04 -0.1,-0.24 -0.1,-0.98 -0.16,-2.62 -0.04,-0.42 -0.08,-1.38 -0.2,-3.38 -0.36,-4.56 -0.16,-1.2 -0.16,-1.34 0,-0.16 0.16,-0.38 0.16,-0.22 0.3,-0.22 0.32,0 0.52,0.46 0.1,0.22 0.22,1.76 0.12,1.54 0.2,3.82 l 0.1,3.06 q 1.1,-3.4 2.28,-6.16 1.18,-2.78 2.16,-2.78 0.66,0 0.9,0.96 0.24,0.96 0.24,2.78 0,0.96 -0.04,2.76 l -0.02,0.92 q 0.82,-2.86 1.62,-4.8 0.82,-1.94 1.64,-1.94 2.06,0 2.06,9.12 z"
           style="font-style:normal;font-variant:normal;font-weight:normal;font-stretch:normal;font-size:20px;font-family:'Ink Free';-inkscape-font-specification:'Ink Free';stroke:url(#linearGradient5337)"
           id="path5396" />
        <path
           d="m 178.34219,66.024612 q 0,1.7 -1.36,3.72 -1.36,2 -3.46,3.54 -0.88,0.66 -1.32,0.66 -0.22,0 -0.36,-0.16 -0.14,-0.16 -0.14,-0.38 0,-0.22 0.18,-0.44 0.2,-0.22 0.58,-0.38 1.38,-0.6 2.52,-1.72 1.14,-1.14 1.78,-2.4 0.64,-1.26 0.64,-2.22 0,-0.38 -0.18,-0.56 -0.16,-0.2 -0.54,-0.2 -0.84,0 -1.72,0.68 -0.88,0.68 -1.64,1.78 -0.58,0.84 -1.12,2.02 -0.54,1.18 -0.82,2.5 -0.16,0.7 -0.68,0.7 -0.14,0 -0.3,-0.24 -0.16,-0.26 -0.16,-0.46 0,-2.32 -0.16,-6.82 -0.16,-4.5 -0.22,-5.14 0,-0.12 -0.02,-0.22 -0.02,-0.12 -0.04,-0.22 -0.02,-0.12 -0.04,-0.24 -0.02,-0.14 -0.02,-0.26 0,-0.46 0.42,-0.46 0.34,0 0.54,0.44 0.22,0.42 0.22,0.96 v 1.06 q 0,4.76 0.14,7.32 0.08,1.26 0.16,1.4 0.22,-0.66 0.68,-1.48 0.48,-0.82 1,-1.52 0.94,-1.28 2.04,-2.04 1.1,-0.78 2,-0.78 0.62,0 1,0.4 0.4,0.4 0.4,1.16 z"
           style="font-style:normal;font-variant:normal;font-weight:normal;font-stretch:normal;font-size:20px;font-family:'Ink Free';-inkscape-font-specification:'Ink Free';stroke:url(#linearGradient5337)"
           id="path5398" />
        <path
           d="m 181.85844,73.224612 q 0,0.2 -0.26,0.32 -0.26,0.12 -0.58,0.12 -0.24,0 -0.46,-0.56 -0.2,-0.58 -0.2,-1.74 0.02,-2.26 0.06,-5.46 0.06,-3.2 0.1,-4.82 0.02,-0.58 0.2,-1.08 0.2,-0.5 0.68,-0.5 0.16,0 0.2,0.18 0.06,0.16 0.06,0.64 0,0.02 -0.02,0.14 0,0.1 0,0.38 -0.36,5.26 -0.36,10.26 0,0.64 0.28,1.36 0.3,0.72 0.3,0.76 z"
           style="font-style:normal;font-variant:normal;font-weight:normal;font-stretch:normal;font-size:20px;font-family:'Ink Free';-inkscape-font-specification:'Ink Free';stroke:url(#linearGradient5337)"
           id="path5400" />
        <path
           d="m 191.46281,68.664612 q 0.14,0 0.14,0.3 0,0.36 -0.54,1.58 -0.52,1.22 -1.6,2.26 -1.06,1.04 -2.62,1.04 -1.28,0 -2.14,-0.8 -0.86,-0.8 -0.86,-2.46 0,-1.56 0.72,-3.08 0.72,-1.54 1.88,-2.5 1.16,-0.98 2.4,-0.98 0.74,0 1.24,0.34 0.52,0.32 0.52,0.94 0,0.7 -0.8,1.36 -0.78,0.66 -2.04,1.16 -1.26,0.5 -2.6,0.72 -0.24,0.92 -0.24,1.8 0,1.16 0.54,1.8 0.56,0.64 1.58,0.64 1.54,0 2.5,-1.1 0.96,-1.1 1.6,-2.48 0.04,-0.08 0.14,-0.3 0.1,-0.24 0.18,-0.24 z m -1.76,-3.14 q 0,-0.32 -0.34,-0.5 -0.32,-0.18 -0.76,-0.18 -0.76,0 -1.46,0.5 -0.7,0.5 -1.18,1.2 -0.46,0.7 -0.6,1.24 0.92,-0.1 1.94,-0.52 1.02,-0.42 1.7,-0.92 0.7,-0.5 0.7,-0.82 z"
           style="font-style:normal;font-variant:normal;font-weight:normal;font-stretch:normal;font-size:20px;font-family:'Ink Free';-inkscape-font-specification:'Ink Free';stroke:url(#linearGradient5337)"
           id="path5402" />
        <path
           d="m 201.47969,72.484612 q 0.02,0.14 0.16,0.3 0.14,0.14 0.14,0.24 0,0.24 -0.2,0.56 -0.2,0.3 -0.4,0.3 -0.34,0 -0.52,-0.42 -0.18,-0.42 -0.18,-0.98 0,-0.48 0.06,-2.88 l 0.02,-0.76 q 0,-0.46 -0.24,-0.66 -0.9,1.52 -1.68,2.64 -0.78,1.12 -1.98,2.12 -1.2,0.98 -2.52,0.98 -0.64,0 -1,-0.4 -0.34,-0.4 -0.34,-1.04 0,-0.8 0.72,-2.18 0.72,-1.4 1.84,-2.82 1.12,-1.44 2.24,-2.36 0.74,-0.6 1.18,-0.8 0.44,-0.22 0.78,-0.22 0.32,0 0.66,0.2 0.34,0.2 0.58,0.56 0.24,0.36 0.24,0.82 0,0.62 -0.34,1.18 l 0.34,-0.1 q 0.22,0 0.26,0.54 0.02,0.32 0.04,1.3 0.04,0.98 0.06,1.62 0.02,0.66 0.04,1.28 0.02,0.62 0.04,0.98 z m -7.06,0.36 q 1.08,0 2.08,-0.8 1,-0.8 1.78,-1.9 0.8,-1.12 1.76,-2.74 0.24,-0.6 0.24,-1.3 0,-0.42 -0.26,-0.72 -0.24,-0.32 -0.66,-0.32 -0.5,0 -1.28,0.68 -0.9,0.76 -1.9,2.04 -1,1.26 -1.66,2.5 -0.66,1.24 -0.66,1.96 0,0.6 0.56,0.6 z"
           style="font-style:normal;font-variant:normal;font-weight:normal;font-stretch:normal;font-size:20px;font-family:'Ink Free';-inkscape-font-specification:'Ink Free';stroke:url(#linearGradient5337)"
           id="path5404" />
        <path
           d="m 216.68781,60.084612 q 0,0.4 -0.04,1.58 -0.04,1.16 -0.04,2.34 0,2.28 0.1,4.66 0.1,2.36 0.16,3.1 0,0.12 0.02,0.26 0.02,0.14 0.04,0.26 0.08,0.56 0.08,0.68 0,0.2 -0.3,0.38 -0.28,0.18 -0.44,0.18 -0.22,0 -0.3,-0.16 -0.06,-0.18 -0.06,-0.48 0,-1.1 0.06,-2.3 l 0.02,-1.12 q 0,-0.56 -0.02,-1.46 -0.02,-0.92 -0.06,-1.54 -1.02,3.28 -2.32,5.44 -1.28,2.14 -2.78,2.14 -0.68,0 -1.16,-0.64 -0.46,-0.64 -0.46,-1.84 0,-1.58 1.06,-3.44 1.08,-1.86 2.44,-3.2 1.38,-1.34 2.04,-1.34 0.64,0 0.64,0.42 0,0.28 -0.2,0.66 -0.18,0.36 -0.42,0.66 -0.22,0.3 -0.26,0.3 -0.04,0 -0.1,-0.02 -0.04,-0.04 -0.04,-0.08 0,-0.1 0.1,-0.34 0.1,-0.24 0.1,-0.32 0,-0.1 -0.02,-0.14 -0.02,-0.04 -0.12,-0.04 -0.42,0 -1.52,1.16 -1.08,1.14 -1.94,2.72 -0.86,1.58 -0.86,2.94 0,0.48 0.2,0.9 0.2,0.42 0.66,0.42 1.46,0 2.7,-2.46 1.26,-2.48 2.18,-5.62 l -0.04,-1.68 q -0.06,-2.22 -0.06,-2.36 0,-1.2 0.1,-1.72 0.04,-0.2 0.08,-0.28 0.06,-0.08 0.22,-0.08 0.2,0 0.4,0.14 0.2,0.12 0.2,0.34 z"
           style="font-style:normal;font-variant:normal;font-weight:normal;font-stretch:normal;font-size:20px;font-family:'Ink Free';-inkscape-font-specification:'Ink Free';stroke:url(#linearGradient5337)"
           id="path5406" />
        <path
           d="m 220.34,61.244612 q 0,0.3 -0.66,0.3 -0.34,0 -0.7,-0.28 -0.34,-0.28 -0.34,-0.46 0,-0.22 0.2,-0.42 0.22,-0.2 0.44,-0.2 0,0 0.14,0.06 0.16,0.04 0.36,0.26 0.16,0.16 0.36,0.42 0.2,0.26 0.2,0.32 z m 0.5,12.58 q 0,0.2 -0.18,0.3 -0.16,0.12 -0.38,0.1 -0.28,-0.02 -0.42,-0.9 -0.12,-0.88 -0.26,-3.34 -0.08,-1.62 -0.14,-3.16 -0.06,-1.56 -0.08,-2.4 0,-0.22 0.06,-0.32 0.08,-0.12 0.28,-0.12 0.46,0 0.58,0.38 0.12,0.38 0.12,1.46 l -0.02,2.36 q 0,2.02 0.12,3.24 0,0.06 0.18,1.28 0.14,0.84 0.14,1.12 z"
           style="font-style:normal;font-variant:normal;font-weight:normal;font-stretch:normal;font-size:20px;font-family:'Ink Free';-inkscape-font-specification:'Ink Free';stroke:url(#linearGradient5337)"
           id="path5408" />
        <path
           d="m 239.79719,73.624612 q 0,0.24 -0.78,0.24 -0.14,0 -1.88,-2.14 -1.72,-2.16 -2.84,-3.68 -0.16,-0.22 -1.02,-1.46 -1.26,-1.84 -1.56,-2.22 l -0.04,1.54 -0.02,1.5 q 0,1.42 -0.04,3.08 -0.02,1.66 -0.06,2.64 -0.02,0.24 -0.22,0.44 -0.18,0.2 -0.38,0.2 -0.22,0 -0.32,-0.12 -0.08,-0.14 -0.08,-0.52 0,-0.24 0.08,-1.48 0.18,-2.3 0.18,-3.86 0,-1.24 0.04,-2.34 0.04,-1.12 0.04,-1.38 l 0.02,-0.58 v -0.06 q 0,-0.22 0.06,-0.34 0.08,-0.14 0.3,-0.14 h 0.1 q 0.22,0 0.86,0.8 0.66,0.78 1.66,2.14 0.22,0.28 0.42,0.56 0.2,0.26 0.38,0.5 1.14,1.46 1.2,1.54 2.84,3.62 3.1,4.12 -0.04,-0.16 -0.14,-0.74 -0.1,-0.58 -0.2,-1.52 -0.08,-0.94 -0.08,-1.94 0,-1.78 -0.34,-4.7 -0.1,-0.96 -0.1,-1.18 0,-0.76 0.86,-0.76 0.2,0 0.3,0.42 0.1,0.4 0.14,1.72 0.04,1.32 0.04,4.22 0,0.92 0.06,1.8 0.08,0.88 0.14,1.56 0.1,0.94 0.1,1.42 z"
           style="font-style:normal;font-variant:normal;font-weight:normal;font-stretch:normal;font-size:20px;font-family:'Ink Free';-inkscape-font-specification:'Ink Free';stroke:url(#linearGradient5337)"
           id="path5410" />
        <path
           d="m 251.20625,72.484612 q 0.02,0.14 0.16,0.3 0.14,0.14 0.14,0.24 0,0.24 -0.2,0.56 -0.2,0.3 -0.4,0.3 -0.34,0 -0.52,-0.42 -0.18,-0.42 -0.18,-0.98 0,-0.48 0.06,-2.88 l 0.02,-0.76 q 0,-0.46 -0.24,-0.66 -0.9,1.52 -1.68,2.64 -0.78,1.12 -1.98,2.12 -1.2,0.98 -2.52,0.98 -0.64,0 -1,-0.4 -0.34,-0.4 -0.34,-1.04 0,-0.8 0.72,-2.18 0.72,-1.4 1.84,-2.82 1.12,-1.44 2.24,-2.36 0.74,-0.6 1.18,-0.8 0.44,-0.22 0.78,-0.22 0.32,0 0.66,0.2 0.34,0.2 0.58,0.56 0.24,0.36 0.24,0.82 0,0.62 -0.34,1.18 l 0.34,-0.1 q 0.22,0 0.26,0.54 0.02,0.32 0.04,1.3 0.04,0.98 0.06,1.62 0.02,0.66 0.04,1.28 0.02,0.62 0.04,0.98 z m -7.06,0.36 q 1.08,0 2.08,-0.8 1,-0.8 1.78,-1.9 0.8,-1.12 1.76,-2.74 0.24,-0.6 0.24,-1.3 0,-0.42 -0.26,-0.72 -0.24,-0.32 -0.66,-0.32 -0.5,0 -1.28,0.68 -0.9,0.76 -1.9,2.04 -1,1.26 -1.66,2.5 -0.66,1.24 -0.66,1.96 0,0.6 0.56,0.6 z"
           style="font-style:normal;font-variant:normal;font-weight:normal;font-stretch:normal;font-size:20px;font-family:'Ink Free';-inkscape-font-specification:'Ink Free';stroke:url(#linearGradient5337)"
           id="path5412" />
        <path
           d="m 262.37219,65.484612 q 0,0.34 -0.3,0.52 -0.28,0.18 -1.04,0.28 -1.84,0.32 -2.06,0.36 l -1.3,0.22 q 0,1.04 0.02,2.18 0.04,1.14 0.1,2 0.08,1.16 0.28,1.78 0.2,0.62 0.22,0.7 0,0.2 -0.26,0.36 -0.24,0.18 -0.46,0.18 -0.12,0 -0.2,-0.08 -0.08,-0.06 -0.14,-0.22 -0.12,-0.28 -0.24,-1.04 -0.1,-0.76 -0.16,-1.68 -0.06,-0.82 -0.1,-1.9 -0.02,-1.1 -0.02,-2.12 -1.12,0.18 -2.3,0.44 -1.06,0.22 -1.26,0.22 -0.24,0 -0.46,-0.14 -0.2,-0.14 -0.2,-0.38 0,-0.26 0.18,-0.34 0.18,-0.08 0.6,-0.08 0.3,0 0.88,-0.1 0.58,-0.12 0.74,-0.16 1.34,-0.26 1.82,-0.34 0,-0.42 -0.04,-1.1 -0.04,-0.92 -0.04,-1.4 0,-0.78 0.04,-1.2 0.06,-0.44 0.2,-0.78 0.16,-0.4 0.6,-0.4 0.18,0 0.24,0.06 0.06,0.06 0.06,0.22 0,0.12 -0.1,0.7 -0.1,0.58 -0.1,1.54 0,0.74 0.04,1.66 l 0.02,0.54 q 0.9,-0.14 3.56,-0.74 0.16,-0.04 0.26,-0.28 0.12,-0.24 0.24,-0.24 0.22,0 0.44,0.26 0.24,0.24 0.24,0.5 z"
           style="font-style:normal;font-variant:normal;font-weight:normal;font-stretch:normal;font-size:20px;font-family:'Ink Free';-inkscape-font-specification:'Ink Free';stroke:url(#linearGradient5337)"
           id="path5414" />
        <path
           d="m 271.675,72.484612 q 0.02,0.14 0.16,0.3 0.14,0.14 0.14,0.24 0,0.24 -0.2,0.56 -0.2,0.3 -0.4,0.3 -0.34,0 -0.52,-0.42 -0.18,-0.42 -0.18,-0.98 0,-0.48 0.06,-2.88 l 0.02,-0.76 q 0,-0.46 -0.24,-0.66 -0.9,1.52 -1.68,2.64 -0.78,1.12 -1.98,2.12 -1.2,0.98 -2.52,0.98 -0.64,0 -1,-0.4 -0.34,-0.4 -0.34,-1.04 0,-0.8 0.72,-2.18 0.72,-1.4 1.84,-2.82 1.12,-1.44 2.24,-2.36 0.74,-0.6 1.18,-0.8 0.44,-0.22 0.78,-0.22 0.32,0 0.66,0.2 0.34,0.2 0.58,0.56 0.24,0.36 0.24,0.82 0,0.62 -0.34,1.18 l 0.34,-0.1 q 0.22,0 0.26,0.54 0.02,0.32 0.04,1.3 0.04,0.98 0.06,1.62 0.02,0.66 0.04,1.28 0.02,0.62 0.04,0.98 z m -7.06,0.36 q 1.08,0 2.08,-0.8 1,-0.8 1.78,-1.9 0.8,-1.12 1.76,-2.74 0.24,-0.6 0.24,-1.3 0,-0.42 -0.26,-0.72 -0.24,-0.32 -0.66,-0.32 -0.5,0 -1.28,0.68 -0.9,0.76 -1.9,2.04 -1,1.26 -1.66,2.5 -0.66,1.24 -0.66,1.96 0,0.6 0.56,0.6 z"
           style="font-style:normal;font-variant:normal;font-weight:normal;font-stretch:normal;font-size:20px;font-family:'Ink Free';-inkscape-font-specification:'Ink Free';stroke:url(#linearGradient5337)"
           id="path5416" />
        <path
           d="m 275.92094,73.224612 q 0,0.2 -0.26,0.32 -0.26,0.12 -0.58,0.12 -0.24,0 -0.46,-0.56 -0.2,-0.58 -0.2,-1.74 0.02,-2.26 0.06,-5.46 0.06,-3.2 0.1,-4.82 0.02,-0.58 0.2,-1.08 0.2,-0.5 0.68,-0.5 0.16,0 0.2,0.18 0.06,0.16 0.06,0.64 0,0.02 -0.02,0.14 0,0.1 0,0.38 -0.36,5.26 -0.36,10.26 0,0.64 0.28,1.36 0.3,0.72 0.3,0.76 z"
           style="font-style:normal;font-variant:normal;font-weight:normal;font-stretch:normal;font-size:20px;font-family:'Ink Free';-inkscape-font-specification:'Ink Free';stroke:url(#linearGradient5337)"
           id="path5418" />
        <path
           d="m 285.52531,68.664612 q 0.14,0 0.14,0.3 0,0.36 -0.54,1.58 -0.52,1.22 -1.6,2.26 -1.06,1.04 -2.62,1.04 -1.28,0 -2.14,-0.8 -0.86,-0.8 -0.86,-2.46 0,-1.56 0.72,-3.08 0.72,-1.54 1.88,-2.5 1.16,-0.98 2.4,-0.98 0.74,0 1.24,0.34 0.52,0.32 0.52,0.94 0,0.7 -0.8,1.36 -0.78,0.66 -2.04,1.16 -1.26,0.5 -2.6,0.72 -0.24,0.92 -0.24,1.8 0,1.16 0.54,1.8 0.56,0.64 1.58,0.64 1.54,0 2.5,-1.1 0.96,-1.1 1.6,-2.48 0.04,-0.08 0.14,-0.3 0.1,-0.24 0.18,-0.24 z m -1.76,-3.14 q 0,-0.32 -0.34,-0.5 -0.32,-0.18 -0.76,-0.18 -0.76,0 -1.46,0.5 -0.7,0.5 -1.18,1.2 -0.46,0.7 -0.6,1.24 0.92,-0.1 1.94,-0.52 1.02,-0.42 1.7,-0.92 0.7,-0.5 0.7,-0.82 z"
           style="font-style:normal;font-variant:normal;font-weight:normal;font-stretch:normal;font-size:20px;font-family:'Ink Free';-inkscape-font-specification:'Ink Free';stroke:url(#linearGradient5337)"
           id="path5420" />
      </g>
      <g
         id="g4968"
         transform="rotate(14.881077,499.43481,-1656.0531)">
        <g
           id="g5218"
           transform="rotate(13.054256,632.00149,64.174593)">
          <g
             id="g5193">
            <g
               id="g5248"
               transform="translate(13.190112,60.946263)">
              <g
                 id="g123"
                 transform="translate(393.91532,-19.757554)">
                <path
                   id="path113"
                   d="m 402.54,416.46 10.17,-4.96 h 1.02 v 35.27 c 0,2.34 0.1,3.8 0.29,4.37 0.19,0.57 0.6,1.02 1.22,1.32 0.62,0.3 1.87,0.48 3.76,0.52 v 1.14 H 403.29 V 453 c 1.97,-0.04 3.24,-0.21 3.82,-0.51 0.57,-0.3 0.97,-0.7 1.2,-1.2 0.23,-0.5 0.34,-2.01 0.34,-4.51 v -22.55 c 0,-3.04 -0.1,-4.99 -0.31,-5.85 -0.14,-0.66 -0.41,-1.14 -0.79,-1.45 -0.38,-0.31 -0.84,-0.46 -1.37,-0.46 -0.76,0 -1.82,0.32 -3.17,0.96 z"
                   inkscape:connector-curvature="0" />
                <path
                   id="path115"
                   d="m 438.79,433.1 c -3.31,-2.71 -5.44,-4.89 -6.39,-6.53 -0.96,-1.64 -1.43,-3.35 -1.43,-5.11 0,-2.71 1.05,-5.05 3.14,-7.01 2.09,-1.96 4.88,-2.94 8.35,-2.94 3.37,0 6.08,0.91 8.13,2.74 2.05,1.83 3.08,3.91 3.08,6.25 0,1.56 -0.55,3.15 -1.66,4.77 -1.11,1.62 -3.42,3.53 -6.93,5.73 3.61,2.79 6.01,4.99 7.18,6.59 1.56,2.09 2.34,4.3 2.34,6.62 0,2.94 -1.12,5.45 -3.36,7.53 -2.24,2.08 -5.17,3.13 -8.81,3.13 -3.96,0 -7.05,-1.24 -9.27,-3.73 -1.77,-1.99 -2.65,-4.17 -2.65,-6.53 0,-1.85 0.62,-3.68 1.86,-5.5 1.24,-1.81 3.38,-3.82 6.42,-6.01 z m 1.45,1.17 c -1.7,1.44 -2.97,3 -3.79,4.7 -0.82,1.69 -1.23,3.53 -1.23,5.5 0,2.65 0.72,4.77 2.17,6.36 1.45,1.59 3.29,2.39 5.53,2.39 2.22,0 3.99,-0.63 5.33,-1.88 1.33,-1.25 2,-2.77 2,-4.56 0,-1.48 -0.39,-2.8 -1.17,-3.97 -1.46,-2.19 -4.41,-5.03 -8.84,-8.54 z m 3.39,-4.47 c 2.47,-2.22 4.02,-3.97 4.68,-5.25 0.66,-1.28 0.99,-2.74 0.99,-4.36 0,-2.16 -0.61,-3.85 -1.82,-5.07 -1.21,-1.22 -2.87,-1.83 -4.96,-1.83 -2.09,0 -3.8,0.61 -5.11,1.82 -1.31,1.21 -1.97,2.63 -1.97,4.25 0,1.07 0.27,2.14 0.82,3.2 0.54,1.07 1.32,2.08 2.33,3.05 z"
                   inkscape:connector-curvature="0" />
                <path
                   id="path117"
                   d="m 501.88,433.1 c -3.31,-2.71 -5.44,-4.89 -6.39,-6.53 -0.96,-1.64 -1.43,-3.35 -1.43,-5.11 0,-2.71 1.05,-5.05 3.14,-7.01 2.09,-1.96 4.88,-2.94 8.35,-2.94 3.37,0 6.08,0.91 8.13,2.74 2.05,1.83 3.08,3.91 3.08,6.25 0,1.56 -0.55,3.15 -1.66,4.77 -1.11,1.62 -3.42,3.53 -6.93,5.73 3.61,2.79 6.01,4.99 7.18,6.59 1.56,2.09 2.34,4.3 2.34,6.62 0,2.94 -1.12,5.45 -3.36,7.53 -2.24,2.08 -5.17,3.13 -8.81,3.13 -3.96,0 -7.05,-1.24 -9.27,-3.73 -1.77,-1.99 -2.65,-4.17 -2.65,-6.53 0,-1.85 0.62,-3.68 1.86,-5.5 1.24,-1.81 3.38,-3.82 6.42,-6.01 z m 1.45,1.17 c -1.7,1.44 -2.97,3 -3.79,4.7 -0.82,1.69 -1.23,3.53 -1.23,5.5 0,2.65 0.72,4.77 2.17,6.36 1.45,1.59 3.29,2.39 5.53,2.39 2.22,0 3.99,-0.63 5.33,-1.88 1.33,-1.25 2,-2.77 2,-4.56 0,-1.48 -0.39,-2.8 -1.17,-3.97 -1.46,-2.19 -4.41,-5.03 -8.84,-8.54 z m 3.38,-4.47 c 2.47,-2.22 4.02,-3.97 4.68,-5.25 0.66,-1.28 0.99,-2.74 0.99,-4.36 0,-2.16 -0.61,-3.85 -1.82,-5.07 -1.21,-1.22 -2.87,-1.83 -4.96,-1.83 -2.09,0 -3.8,0.61 -5.11,1.82 -1.31,1.21 -1.97,2.63 -1.97,4.25 0,1.07 0.27,2.14 0.82,3.2 0.54,1.07 1.32,2.08 2.33,3.05 z"
                   inkscape:connector-curvature="0" />
                <g
                   id="g121">
                  <path
                     id="path119"
                     d="m 485.83,412.37 v 2.05 l -6.6,15.78 c -0.88,2.09 -1.61,3.97 -2.2,5.63 -0.59,1.66 -1.06,3.13 -1.41,4.4 -0.35,1.27 -0.6,2.38 -0.75,3.32 -0.15,0.94 -0.22,1.73 -0.22,2.38 0,0.78 0.08,1.39 0.24,1.83 0.16,0.44 0.33,0.83 0.51,1.16 0.19,0.33 0.36,0.67 0.51,1 0.16,0.33 0.24,0.78 0.24,1.35 0,0.59 -0.09,1.1 -0.28,1.55 -0.19,0.45 -0.44,0.83 -0.75,1.13 -0.31,0.3 -0.68,0.53 -1.09,0.69 -0.41,0.16 -0.83,0.23 -1.26,0.23 -0.47,0 -0.93,-0.09 -1.38,-0.26 -0.45,-0.18 -0.86,-0.44 -1.22,-0.79 -0.36,-0.35 -0.65,-0.78 -0.87,-1.29 -0.22,-0.51 -0.32,-1.09 -0.32,-1.73 0,-0.72 0.13,-1.56 0.38,-2.52 0.25,-0.96 0.6,-2.02 1.04,-3.18 0.44,-1.16 0.95,-2.42 1.54,-3.78 0.59,-1.36 1.2,-2.8 1.85,-4.33 l 8.36,-19.74 h -11.5 c -1.39,0 -2.49,0.06 -3.32,0.18 -0.82,0.12 -1.47,0.39 -1.94,0.81 -0.47,0.42 -0.82,1.04 -1.06,1.86 -0.24,0.82 -0.47,1.95 -0.7,3.37 h -2.23 v -11.09 h 24.43 z"
                     inkscape:connector-curvature="0" />
                </g>
              </g>
              <path
                 id="path91"
                 d="M 168.27,205.35"
                 class="st1"
                 inkscape:connector-curvature="0"
                 style="fill:none;stroke:#000000;stroke-miterlimit:10"
                 transform="translate(535.24858,-25.358367)" />
              <path
                 style="fill:#000000;fill-opacity:0.96891192;stroke-width:1"
                 inkscape:connector-curvature="0"
                 class="st2"
                 d="m 789.81533,196.23245 c 0,-42.74 32.59,-66.7 74.57,-64.07 3.6,0.23 7.16,0.87 10.61,1.9 v 0 c 4.69,1.4 5.03,7.91 0.51003,9.79 v 0 c -0.62996,0.26 -1.32,0.37 -2,0.34 -31.22,-1.57 -60.2,16.19 -57,48.61 0,0 -0.45002,16.87001 9.44,30.69 2.25,3.15 4.45,6.33 6.45,9.65001 10.24,17.02999 24.02,36.94 24.02,63.23 v 1.19 c -5.45,75.07 -62.66,77.95 -95.55,78.06 -2.49,0.0103 -4.97,-0.15999 -7.44,-0.49998 l -0.55998,-0.08 c -0.83001,-0.12 -1.65001,-0.36999 -2.36001,-0.81999 -1.59,-1.02001 -1.67,-2.16001 -1.27,-3.11 0.52998,-1.26 1.81,-2.05001 3.17001,-2.16001 l 2.97999,-0.24001 c 2.65,-0.21999 5.32,-0.30999 7.98,-0.30999 43.44001,-0.0602 55.16001,-26.75 55.16001,-26.75 22.65,-56.63004 -15.76001,-102.48004 -15.76001,-102.48004 -8.21,-12.95 -12.94999,-27.76 -12.94999,-42.94"
                 id="path97" />
              <path
                 style="fill:#000000;fill-opacity:1;stroke-width:1"
                 inkscape:connector-curvature="0"
                 class="st2"
                 d="m 755.04533,217.74245 c 0,-42.74 32.59,-66.7 74.57,-64.07 3.6,0.23 7.16,0.87 10.61,1.9 v 0 c 4.69,1.4 5.03,7.91 0.51003,9.79 v 0 c -0.62996,0.26 -1.32,0.37001 -2,0.34 -31.22,-1.57 -60.2,16.19 -57,48.61001 0,0 -0.45002,16.87 9.44,30.68999 2.25,3.15001 4.45,6.33 6.45,9.65001 10.24,17.02999 24.02,36.94 24.02,63.23 v 1.19 c -5.45,75.07 -62.66,77.95 -95.55,78.06 -2.49,0.0103 -4.97001,-0.15999 -7.44,-0.49998 l -0.55998,-0.08 c -0.82999,-0.12 -1.65,-0.36999 -2.36,-0.82 -1.59,-1.02 -1.67,-2.15999 -1.26999,-3.10999 0.52998,-1.26001 1.80999,-2.05001 3.16999,-2.16001 l 2.98,-0.24001 c 2.65,-0.21999 5.32,-0.30999 7.98,-0.30999 43.44,-0.0602 55.16,-26.75001 55.16,-26.75001 22.65,-56.62999 -15.76,-102.48 -15.76,-102.48 -8.21,-12.94 -12.95,-27.75 -12.95,-42.94"
                 id="path99" />
              <path
                 inkscape:connector-curvature="0"
                 style="fill:#000000;fill-opacity:1;stroke-width:1"
                 d="m 868.48534,318.51245 h 22.25 v 57.84 h -22.25 z"
                 id="rect101" />
              <path
                 inkscape:connector-curvature="0"
                 style="fill:#000000;fill-opacity:1;stroke-width:1"
                 d="m 890.22533,296.63247 a 10.720001,10.720001 0 0 1 -10.71999,10.72 10.720001,10.720001 0 0 1 -10.72001,-10.72 10.720001,10.720001 0 0 1 10.72001,-10.72 10.720001,10.720001 0 0 1 10.71999,10.72 z"
                 id="circle103" />
              <g
                 transform="translate(393.91532,-19.757552)"
                 id="g107">
                <path
                   inkscape:connector-curvature="0"
                   transform="matrix(0.4223,-0.9065,0.9065,0.4223,-5.8465,622.8114)"
                   style="fill:none;stroke:#000000;stroke-width:2.5;stroke-miterlimit:10"
                   d="m 499.70001,315.98999 a 14,37.810001 0 0 1 -14,37.81 14,37.810001 0 0 1 -14,-37.81 14,37.810001 0 0 1 14,-37.81 14,37.810001 0 0 1 14,37.81 z"
                   id="ellipse105" />
              </g>
              <g
                 transform="translate(393.91532,-19.757552)"
                 id="g111">
                <path
                   inkscape:connector-curvature="0"
                   transform="matrix(0.9301,-0.3673,0.3673,0.9301,-82.6541,199.9315)"
                   style="fill:none;stroke:#000000;stroke-width:2.5;stroke-miterlimit:10"
                   d="m 521.75,317.12 a 37.810001,14 0 0 1 -37.81,14 37.810001,14 0 0 1 -37.81,-14 37.810001,14 0 0 1 37.81,-14 37.810001,14 0 0 1 37.81,14 z"
                   id="ellipse109" />
              </g>
              <g
                 transform="translate(393.91532,-19.757552)"
                 id="g133">
                <path
                   inkscape:connector-curvature="0"
                   d="m 161.26,157.9 c 0,0 7.21,-0.07 7.35,5.66 v 40.88 c 0,0.57 -0.08,1.15 -0.27,1.69 -0.46,1.29 -1.68,3.44 -4.94,4.98 -0.46,0.22 -0.3,0.92 0.21,0.92 5.08,0 16.03,0 21.11,0 0.51,0 0.68,-0.7 0.21,-0.92 -3.25,-1.54 -4.48,-3.69 -4.94,-4.98 -0.19,-0.54 -0.27,-1.12 -0.27,-1.69 v -40.88 c 0.13,-5.73 7.35,-5.66 7.35,-5.66 v -6.07 h -26.16 v 6.07 z"
                   id="path125" />
                <path
                   inkscape:connector-curvature="0"
                   d="m 298.04,157.9 c 0,0 7.21,-0.07 7.35,5.66 v 40.88 c 0,0.57 -0.08,1.15 -0.27,1.69 -0.46,1.29 -1.68,3.44 -4.94,4.98 -0.46,0.22 -0.3,0.92 0.21,0.92 5.08,0 16.03,0 21.11,0 0.51,0 0.68,-0.7 0.21,-0.92 -3.25,-1.54 -4.48,-3.69 -4.94,-4.98 -0.19,-0.54 -0.27,-1.12 -0.27,-1.69 v -40.88 c 0.13,-5.73 7.35,-5.66 7.35,-5.66 v -6.07 h -26.16 v 6.07 z"
                   id="path127" />
                <path
                   inkscape:connector-curvature="0"
                   d="m 258.92,212.42 c -7.33,-2.81 -7.59,-9.26 -7.59,-9.26 v -40.25 h 4.51 c 1.35,0 2.61,0.68 3.35,1.81 l 7.71,11.75 c 6.47,-2.83 -2.29,-23.21 -2.29,-23.21 h -39.39 c 0,0 -8.76,20.38 -2.29,23.21 l 7.71,-11.75 c 0.74,-1.13 2,-1.81 3.35,-1.81 h 4.51 v 40.25 c 0,0 -0.26,6.45 -7.59,9.26 -0.68,0.26 -0.51,1.25 0.22,1.25 h 27.56 c 0.74,0 0.9,-0.99 0.23,-1.25 z"
                   id="path129" />
                <path
                   inkscape:connector-curvature="0"
                   d="m 382.56,194.87 c 1.8,1.3 3.16,3.17 3.66,5.33 1.28,5.46 -3.78,6.4 -3.78,6.4 -7.01,2.21 -14.02,-3.9 -17.75,-7.99 -1.48,-1.62 -2.57,-3.53 -3.42,-5.56 -1.7,-4.05 -4.18,-0.75 -4.18,-0.75 l -2.16,19.73 h 36.96 c 1.05,0 2.02,-0.52 2.62,-1.38 6.77,-9.76 4.88,-18.1 1.18,-24.07 -3.33,-5.37 -8.56,-9.27 -14.51,-11.41 -9.5,-3.42 -11.58,-7.34 -11.95,-9.43 -0.17,-0.94 0.15,-1.92 0.82,-2.6 6.08,-6.07 23.45,13.52 23.45,13.52 v -24.83 c 0,0 -5.67,6.59 -13.19,2.47 -3.98,-2.18 -8.48,-3.27 -12.97,-2.64 -7.8,1.09 -16.8,5.91 -12.4,23.38 0,0 0.5,5.83 16.42,13.2 3.76,1.74 7.35,3.84 10.7,6.26 z"
                   id="path131" />
              </g>
              <path
                 style="fill:#000000;fill-opacity:1;stroke-width:0.04697806"
                 d="m 46.871094,14.552734 c -0.978854,0.05924 -2.261253,0.373143 -3.25,0.792969 -1.823204,0.774143 -3.817655,2.216898 -5.513672,3.992188 -1.188121,1.243653 -2.310538,2.905218 -3.572266,5.283203 -0.942288,1.775939 -1.529148,3.152732 -2.046875,4.808594 -0.147962,0.473232 -0.27926,0.947478 -0.394531,1.421874 -0.115271,0.474395 -0.214455,0.94874 -0.296875,1.419922 -0.08242,0.471182 -0.147851,0.938751 -0.197266,1.402344 -0.04941,0.463592 1.174453,-0.143036 1.158203,0.308594 -0.665126,2.522254 -1.002592,2.562956 -0.742654,2.376437 0.460613,-0.330512 2.146872,-2.852247 2.570854,-4.087333 0.272768,-0.783274 1.06032,-2.32557 1.49414,-2.923828 0.572877,-0.790025 1.465945,-1.766549 1.873047,-2.048828 0.113983,-0.07904 0.119773,-0.105305 0.0957,-0.548828 -0.181266,-3.340272 2.350227,-6.303457 7.003906,-8.197266 0.817317,-0.332605 2.020562,-0.699639 2.427735,-0.740234 0.736024,-0.07338 1.613694,0.04051 2.304687,0.296875 0.711576,0.264001 1.582904,0.923966 2.027344,1.537109 0.314494,0.433872 0.506847,1.070644 0.490234,1.619141 -0.02209,0.729256 -0.40113,1.788486 -1.042968,2.908203 -0.449665,0.784461 -0.780351,1.211133 -1.392578,1.794922 -1.246201,1.188312 -3.02829,1.912129 -5.085938,2.066406 -0.971714,0.07286 -2.262946,-0.01953 -3.257812,-0.232422 -0.528614,-0.113119 -0.794943,-0.124363 -1.277344,-0.05273 -0.591943,0.08789 -1.264303,0.461841 -1.714844,0.955078 -0.54934,0.601397 -1.072282,2.083484 -1.376953,3.898438 -0.261274,1.556431 -0.274432,2.392579 -0.06055,3.78125 0.617832,4.011354 2.948057,7.18744 6.927734,9.441406 1.776803,1.006325 4.092956,1.86984 6.021485,2.246094 0.668858,0.130492 1.020819,-0.234852 0.68164,-0.708985 -0.190321,-0.26604 -0.486222,-0.457402 -1.693359,-1.097656 -2.443276,-1.296024 -4.103783,-2.499449 -5.589844,-4.050781 -2.863168,-2.988929 -4.048296,-6.715087 -3.349609,-10.535156 0.110812,-0.60588 0.349071,-1.468704 0.523437,-1.898438 l 0.115235,-0.287109 0.408203,0.121093 c 0.559503,0.164367 1.559881,0.331816 2.24414,0.376954 2.207132,0.145593 4.83023,-0.416741 7.203126,-1.544922 1.641732,-0.780555 2.771917,-1.591047 3.648437,-2.615235 0.435434,-0.508795 1.062577,-1.668077 1.214844,-2.246093 0.519661,-1.972675 0.163478,-3.814854 -1.072266,-5.5625 -0.743782,-1.05189 -1.499917,-1.68118 -2.947265,-2.447266 -1.505229,-0.796721 -2.948193,-1.120893 -4.558594,-1.023438 z"
                 transform="matrix(6.4806152,-3.4364276,3.4364276,6.4806152,212.38373,268.12237)"
                 id="path5325"
                 inkscape:connector-curvature="0"
                 sodipodi:nodetypes="ccsssssccscsccccsscscccccscscccscccccccssscc" />
              <path
                 style="fill:#000000;fill-opacity:1;stroke-width:0.34460068"
                 d="m 667.72402,393.20741 c -9.6772,-0.89579 -18.85762,-3.34027 -26.00627,-6.92472 -12.04281,-6.03847 -22.09876,-18.02159 -26.67802,-31.79073 -1.81742,-5.4647 -2.48429,-9.43914 -2.68864,-16.02393 -0.15866,-5.11263 -0.0789,-6.66427 0.52463,-10.19435 1.54601,-9.0439 4.87658,-16.6752 10.71322,-24.54709 12.73507,-17.17578 32.54367,-28.70586 53.42731,-31.09867 5.56585,-0.63773 14.43287,-0.24383 19.08936,0.848 4.24857,0.99618 5.57302,1.64886 6.68035,3.29203 1.1764,1.74566 1.02235,2.99083 -0.55572,4.49202 -2.07089,1.96999 -3.57629,2.24387 -9.8146,1.78562 -17.0383,-1.25158 -32.00818,4.16501 -43.64833,15.79336 -6.92461,6.91761 -11.63398,15.54641 -13.28052,24.33342 -0.84973,4.53473 -0.77389,12.29549 0.15455,15.81256 4.17048,15.79868 21.73708,28.71877 44.26795,32.55871 11.26826,1.92044 26.89119,0.87036 36.26614,-2.43761 17.20498,-6.07082 27.01615,-19.1054 27.01615,-35.89217 0,-6.95052 -1.68102,-12.00548 -5.68568,-17.09729 -5.82268,-7.4034 -17.22619,-12.8712 -28.77438,-13.79688 -4.5662,-0.36604 -13.71087,0.41554 -17.89637,1.52956 -10.65348,2.83554 -19.55838,10.19928 -21.59827,17.8603 -0.96739,3.6331 -0.38342,8.59986 1.47694,12.56254 1.41824,3.0209 5.11557,6.52362 8.72664,8.26735 4.05952,1.96027 7.72394,2.76886 14.64553,3.23167 5.0886,0.34021 6.21153,0.31872 8.54763,-0.16358 3.0139,-0.62226 6.74129,-2.22335 9.13014,-3.92177 1.8546,-1.31856 4.56478,-1.9805 7.21055,-1.76109 3.30325,0.2739 5.06097,2.35398 5.02715,5.94902 -0.0279,2.94434 -0.81168,4.41362 -3.35594,6.28948 -4.36106,3.21538 -11.45377,6.13925 -18.63372,7.68151 -5.30047,1.13854 -14.22419,1.31709 -19.64223,0.39303 -10.29414,-1.75573 -20.62356,-6.67424 -27.39546,-13.04476 -4.50061,-4.23384 -7.35301,-8.84026 -8.81681,-14.2385 -0.92398,-3.40749 -0.84307,-9.63722 0.17678,-13.61173 4.7342,-18.44955 17.63491,-28.61418 39.83136,-31.38362 7.4329,-0.9274 18.86753,-0.86366 25.49516,0.14208 22.42185,3.40262 36.90705,9.8521 45.08582,20.0743 7.45817,9.32155 9.71966,21.4837 6.41322,34.48979 -6.70221,26.36359 -29.04913,42.40538 -68.30525,49.03309 -10.86985,1.83519 -18.82619,2.27773 -27.13037,1.50905 z"
                 id="path204"
                 inkscape:connector-curvature="0" />
            </g>
          </g>
        </g>
      </g>
      <g
         aria-label="-Men Onto x1
-Men Cioccolata x1
-----------------------------------"
         transform="matrix(7.3353533,0,0,7.3353533,-297.38816,84.151406)"
         style="font-style:normal;font-weight:normal;font-size:20px;line-height:1.25;font-family:sans-serif;letter-spacing:0px;word-spacing:0px;fill:#000000;fill-opacity:1;stroke:none"
         id="flowRoot5341">
        <path
           d="m 10.476563,124.36914 h 5.263671 v 1.60156 h -5.263671 z"
           style=""
           id="path916" />
        <path
           d="m 18.689453,116.06836 h 2.939453 l 3.720703,9.92187 3.740235,-9.92187 h 2.939453 v 14.58008 H 30.105469 V 117.8457 l -3.759766,10 h -1.982422 l -3.759765,-10 v 12.80274 h -1.914063 z"
           style=""
           id="path918" />
        <path
           d="m 45.232422,124.73047 v 0.87891 h -8.261719 q 0.117188,1.85546 1.113281,2.83203 1.00586,0.96679 2.792969,0.96679 1.035156,0 2.001953,-0.2539 0.976563,-0.25391 1.933594,-0.76172 v 1.69922 q -0.966797,0.41015 -1.982422,0.625 -1.015625,0.21484 -2.060547,0.21484 -2.617187,0 -4.15039,-1.52344 -1.523438,-1.52343 -1.523438,-4.12109 0,-2.68555 1.445313,-4.25781 1.455078,-1.58203 3.916015,-1.58203 2.207031,0 3.486328,1.42578 1.289063,1.41601 1.289063,3.85742 z m -1.796875,-0.52734 q -0.01953,-1.47461 -0.830078,-2.35352 -0.800782,-0.87891 -2.128907,-0.87891 -1.503906,0 -2.412109,0.84961 -0.898437,0.84961 -1.035156,2.39258 z"
           style=""
           id="path920" />
        <path
           d="m 57.273437,124.04688 v 6.60156 h -1.796875 v -6.54297 q 0,-1.55274 -0.605468,-2.32422 -0.605469,-0.77148 -1.816407,-0.77148 -1.455078,0 -2.294921,0.92773 -0.839844,0.92773 -0.839844,2.5293 v 6.18164 h -1.806641 v -10.9375 h 1.806641 v 1.69922 q 0.644531,-0.98633 1.513672,-1.47461 0.878906,-0.48828 2.021484,-0.48828 1.884766,0 2.851563,1.17187 0.966796,1.16211 0.966796,3.42774 z"
           style=""
           id="path922" />
        <path
           d="m 60.691406,126.33203 v -6.62109 h 1.796875 v 6.55273 q 0,1.55274 0.605469,2.33399 0.605469,0.77148 1.816406,0.77148 1.455078,0 2.294922,-0.92773 0.849609,-0.92774 0.849609,-2.5293 v -6.20117 h 1.796875 v 10.9375 h -1.796875 v -1.67969 q -0.654296,0.99609 -1.523437,1.48437 -0.859375,0.47852 -2.001953,0.47852 -1.884766,0 -2.861328,-1.17187 -0.976563,-1.17188 -0.976563,-3.42774 z m 4.521485,-6.88476 z m -1.435547,-4.79493 2.753906,3.65235 h -1.494141 l -3.183593,-3.65235 z"
           style=""
           id="path924" />
        <path
           d="m 85.935547,117.40625 q -2.148438,0 -3.417969,1.60156 -1.259766,1.60157 -1.259766,4.36524 0,2.7539 1.259766,4.35547 1.269531,1.60156 3.417969,1.60156 2.148437,0 3.398437,-1.60156 1.259766,-1.60157 1.259766,-4.35547 0,-2.76367 -1.259766,-4.36524 -1.25,-1.60156 -3.398437,-1.60156 z m 0,-1.60156 q 3.066406,0 4.902344,2.06054 1.835937,2.05079 1.835937,5.50782 0,3.44726 -1.835937,5.50781 -1.835938,2.05078 -4.902344,2.05078 -3.076172,0 -4.921875,-2.05078 -1.835938,-2.05078 -1.835938,-5.50781 0,-3.45703 1.835938,-5.50782 1.845703,-2.06054 4.921875,-2.06054 z"
           style=""
           id="path926" />
        <path
           d="m 104.77344,124.04688 v 6.60156 h -1.79688 v -6.54297 q 0,-1.55274 -0.60547,-2.32422 -0.60546,-0.77148 -1.8164,-0.77148 -1.455081,0 -2.294924,0.92773 -0.839844,0.92773 -0.839844,2.5293 v 6.18164 h -1.806641 v -10.9375 h 1.806641 v 1.69922 q 0.644531,-0.98633 1.513672,-1.47461 0.878906,-0.48828 2.021486,-0.48828 1.88476,0 2.85156,1.17187 0.9668,1.16211 0.9668,3.42774 z"
           style=""
           id="path928" />
        <path
           d="m 110.1543,116.60547 v 3.10547 h 3.70117 v 1.39648 h -3.70117 v 5.9375 q 0,1.33789 0.36133,1.71875 0.37109,0.38086 1.49414,0.38086 h 1.8457 v 1.50391 h -1.8457 q -2.08008,0 -2.8711,-0.77149 -0.79101,-0.78125 -0.79101,-2.83203 v -5.9375 h -1.31836 v -1.39648 h 1.31836 v -3.10547 z"
           style=""
           id="path930" />
        <path
           d="m 120.4668,120.9707 q -1.44532,0 -2.28516,1.13282 -0.83984,1.12304 -0.83984,3.08593 0,1.96289 0.83008,3.09571 0.83984,1.12304 2.29492,1.12304 1.43554,0 2.27539,-1.13281 0.83984,-1.13281 0.83984,-3.08594 0,-1.94336 -0.83984,-3.07617 -0.83985,-1.14258 -2.27539,-1.14258 z m 0,-1.52343 q 2.34375,0 3.68164,1.52343 1.33789,1.52344 1.33789,4.21875 0,2.68555 -1.33789,4.21875 -1.33789,1.52344 -3.68164,1.52344 -2.35352,0 -3.69141,-1.52344 -1.32812,-1.5332 -1.32812,-4.21875 0,-2.69531 1.32812,-4.21875 1.33789,-1.52343 3.69141,-1.52343 z"
           style=""
           id="path932" />
        <path
           d="m 143.91406,119.71094 -3.95508,5.32226 4.16016,5.61524 H 142 l -3.18359,-4.29688 -3.1836,4.29688 h -2.11914 l 4.24805,-5.72266 -3.88672,-5.21484 h 2.11914 l 2.90039,3.89648 2.90039,-3.89648 z"
           style=""
           id="path934" />
        <path
           d="m 147.25391,128.98828 h 3.22265 v -11.12305 l -3.50586,0.70313 v -1.79688 l 3.48633,-0.70312 h 1.97266 v 12.91992 h 3.22265 v 1.66016 h -8.39843 z"
           style=""
           id="path936" />
        <path
           d="m 10.476563,149.36914 h 5.263671 v 1.60156 h -5.263671 z"
           style=""
           id="path938" />
        <path
           d="m 18.689453,141.06836 h 2.939453 l 3.720703,9.92187 3.740235,-9.92187 h 2.939453 v 14.58008 H 30.105469 V 142.8457 l -3.759766,10 h -1.982422 l -3.759765,-10 v 12.80274 h -1.914063 z"
           style=""
           id="path940" />
        <path
           d="m 45.232422,149.73047 v 0.8789 h -8.261719 q 0.117188,1.85547 1.113281,2.83204 1.00586,0.96679 2.792969,0.96679 1.035156,0 2.001953,-0.2539 0.976563,-0.25391 1.933594,-0.76172 v 1.69922 q -0.966797,0.41015 -1.982422,0.625 -1.015625,0.21484 -2.060547,0.21484 -2.617187,0 -4.15039,-1.52344 -1.523438,-1.52343 -1.523438,-4.12109 0,-2.68555 1.445313,-4.25781 1.455078,-1.58203 3.916015,-1.58203 2.207031,0 3.486328,1.42578 1.289063,1.41601 1.289063,3.85742 z m -1.796875,-0.52735 q -0.01953,-1.4746 -0.830078,-2.35351 -0.800782,-0.87891 -2.128907,-0.87891 -1.503906,0 -2.412109,0.84961 -0.898437,0.84961 -1.035156,2.39258 z"
           style=""
           id="path942" />
        <path
           d="m 57.273437,149.04687 v 6.60157 h -1.796875 v -6.54297 q 0,-1.55274 -0.605468,-2.32422 -0.605469,-0.77148 -1.816407,-0.77148 -1.455078,0 -2.294921,0.92773 -0.839844,0.92773 -0.839844,2.5293 v 6.18164 h -1.806641 v -10.9375 h 1.806641 v 1.69922 q 0.644531,-0.98633 1.513672,-1.47461 0.878906,-0.48828 2.021484,-0.48828 1.884766,0 2.851563,1.17187 0.966796,1.16211 0.966796,3.42773 z"
           style=""
           id="path944" />
        <path
           d="m 60.691406,151.33203 v -6.62109 h 1.796875 v 6.55273 q 0,1.55274 0.605469,2.33399 0.605469,0.77148 1.816406,0.77148 1.455078,0 2.294922,-0.92773 0.849609,-0.92774 0.849609,-2.5293 v -6.20117 h 1.796875 v 10.9375 h -1.796875 v -1.67969 q -0.654296,0.99609 -1.523437,1.48437 -0.859375,0.47852 -2.001953,0.47852 -1.884766,0 -2.861328,-1.17187 -0.976563,-1.17188 -0.976563,-3.42774 z m 4.521485,-6.88476 z m -1.435547,-4.79493 2.753906,3.65235 h -1.494141 l -3.183593,-3.65235 z"
           style=""
           id="path946" />
        <path
           d="m 90.935547,142.19141 v 2.08007 q -0.996094,-0.92773 -2.128906,-1.38671 -1.123047,-0.45899 -2.392579,-0.45899 -2.5,0 -3.828125,1.5332 -1.328125,1.52344 -1.328125,4.41407 0,2.88086 1.328125,4.41406 1.328125,1.52344 3.828125,1.52344 1.269532,0 2.392579,-0.45899 1.132812,-0.45898 2.128906,-1.38672 v 2.06055 q -1.035156,0.70313 -2.197266,1.05469 -1.152344,0.35156 -2.441406,0.35156 -3.310547,0 -5.214844,-2.02148 -1.904297,-2.03125 -1.904297,-5.53711 0,-3.51563 1.904297,-5.53711 1.904297,-2.03125 5.214844,-2.03125 1.308594,0 2.460937,0.35156 1.16211,0.3418 2.177735,1.03516 z"
           style=""
           id="path948" />
        <path
           d="m 93.923828,144.71094 h 1.796875 v 10.9375 h -1.796875 z m 0,-4.25782 h 1.796875 v 2.2754 h -1.796875 z"
           style=""
           id="path950" />
        <path
           d="m 103.70898,145.9707 q -1.44531,0 -2.28515,1.13282 -0.83985,1.12304 -0.83985,3.08593 0,1.96289 0.83008,3.09571 0.83985,1.12304 2.29492,1.12304 1.43555,0 2.2754,-1.13281 0.83984,-1.13281 0.83984,-3.08594 0,-1.94336 -0.83984,-3.07617 -0.83985,-1.14258 -2.2754,-1.14258 z m 0,-1.52343 q 2.34375,0 3.68165,1.52343 1.33789,1.52344 1.33789,4.21875 0,2.68555 -1.33789,4.21875 -1.3379,1.52344 -3.68165,1.52344 -2.35351,0 -3.6914,-1.52344 -1.328127,-1.5332 -1.328127,-4.21875 0,-2.69531 1.328127,-4.21875 1.33789,-1.52343 3.6914,-1.52343 z"
           style=""
           id="path952" />
        <path
           d="m 119.56836,145.13086 v 1.67969 q -0.76172,-0.41993 -1.5332,-0.625 -0.76172,-0.21485 -1.54297,-0.21485 -1.74805,0 -2.71485,1.11328 -0.96679,1.10352 -0.96679,3.10547 0,2.00196 0.96679,3.11524 0.9668,1.10351 2.71485,1.10351 0.78125,0 1.54297,-0.20508 0.77148,-0.21484 1.5332,-0.63476 v 1.66016 q -0.75195,0.35156 -1.5625,0.52734 -0.80078,0.17578 -1.70898,0.17578 -2.47071,0 -3.92579,-1.55273 -1.45507,-1.55274 -1.45507,-4.18946 0,-2.67578 1.46484,-4.20898 1.47461,-1.5332 4.0332,-1.5332 0.83008,0 1.6211,0.17578 0.79101,0.16601 1.5332,0.50781 z"
           style=""
           id="path954" />
        <path
           d="m 130.58398,145.13086 v 1.67969 q -0.76171,-0.41993 -1.5332,-0.625 -0.76172,-0.21485 -1.54297,-0.21485 -1.74804,0 -2.71484,1.11328 -0.9668,1.10352 -0.9668,3.10547 0,2.00196 0.9668,3.11524 0.9668,1.10351 2.71484,1.10351 0.78125,0 1.54297,-0.20508 0.77149,-0.21484 1.5332,-0.63476 v 1.66016 q -0.75195,0.35156 -1.5625,0.52734 -0.80078,0.17578 -1.70898,0.17578 -2.4707,0 -3.92578,-1.55273 -1.45508,-1.55274 -1.45508,-4.18946 0,-2.67578 1.46484,-4.20898 1.47461,-1.5332 4.03321,-1.5332 0.83008,0 1.62109,0.17578 0.79102,0.16601 1.5332,0.50781 z"
           style=""
           id="path956" />
        <path
           d="m 137.9668,145.9707 q -1.44532,0 -2.28516,1.13282 -0.83984,1.12304 -0.83984,3.08593 0,1.96289 0.83007,3.09571 0.83985,1.12304 2.29493,1.12304 1.43554,0 2.27539,-1.13281 0.83984,-1.13281 0.83984,-3.08594 0,-1.94336 -0.83984,-3.07617 -0.83985,-1.14258 -2.27539,-1.14258 z m 0,-1.52343 q 2.34375,0 3.68164,1.52343 1.33789,1.52344 1.33789,4.21875 0,2.68555 -1.33789,4.21875 -1.33789,1.52344 -3.68164,1.52344 -2.35352,0 -3.69141,-1.52344 -1.32812,-1.5332 -1.32812,-4.21875 0,-2.69531 1.32812,-4.21875 1.33789,-1.52343 3.69141,-1.52343 z"
           style=""
           id="path958" />
        <path
           d="m 145.95508,140.45312 h 1.79687 v 15.19532 h -1.79687 z"
           style=""
           id="path960" />
        <path
           d="m 156.47266,150.15039 q -2.17774,0 -3.01758,0.49805 -0.83985,0.49804 -0.83985,1.69922 0,0.95703 0.625,1.52343 0.63477,0.55664 1.71875,0.55664 1.49414,0 2.39258,-1.05468 0.90821,-1.06446 0.90821,-2.82227 v -0.40039 z m 3.58398,-0.74219 v 6.24024 h -1.79687 v -1.66016 q -0.61524,0.99609 -1.53321,1.47461 -0.91797,0.46875 -2.24609,0.46875 -1.67969,0 -2.67578,-0.9375 -0.98633,-0.94727 -0.98633,-2.5293 0,-1.8457 1.23047,-2.7832 1.24023,-0.9375 3.6914,-0.9375 h 2.51954 v -0.17578 q 0,-1.24024 -0.82032,-1.91406 -0.81054,-0.6836 -2.28515,-0.6836 -0.9375,0 -1.82618,0.22461 -0.88867,0.22461 -1.70898,0.67383 v -1.66016 q 0.98633,-0.38086 1.91406,-0.5664 0.92774,-0.19531 1.80664,-0.19531 2.37305,0 3.54493,1.23046 1.17187,1.23047 1.17187,3.73047 z"
           style=""
           id="path962" />
        <path
           d="m 165.54492,141.60547 v 3.10547 h 3.70117 v 1.39648 h -3.70117 v 5.9375 q 0,1.33789 0.36133,1.71875 0.37109,0.38086 1.49414,0.38086 h 1.8457 v 1.50391 h -1.8457 q -2.08008,0 -2.87109,-0.77149 -0.79102,-0.78125 -0.79102,-2.83203 v -5.9375 h -1.31836 v -1.39648 h 1.31836 v -3.10547 z"
           style=""
           id="path964" />
        <path
           d="m 176.58984,150.15039 q -2.17773,0 -3.01757,0.49805 -0.83985,0.49804 -0.83985,1.69922 0,0.95703 0.625,1.52343 0.63477,0.55664 1.71875,0.55664 1.49414,0 2.39258,-1.05468 0.9082,-1.06446 0.9082,-2.82227 v -0.40039 z m 3.58399,-0.74219 v 6.24024 h -1.79688 v -1.66016 q -0.61523,0.99609 -1.5332,1.47461 -0.91797,0.46875 -2.24609,0.46875 -1.67969,0 -2.67579,-0.9375 -0.98632,-0.94727 -0.98632,-2.5293 0,-1.8457 1.23047,-2.7832 1.24023,-0.9375 3.6914,-0.9375 h 2.51953 v -0.17578 q 0,-1.24024 -0.82031,-1.91406 -0.81055,-0.6836 -2.28516,-0.6836 -0.9375,0 -1.82617,0.22461 -0.88867,0.22461 -1.70898,0.67383 v -1.66016 q 0.98633,-0.38086 1.91406,-0.5664 0.92773,-0.19531 1.80664,-0.19531 2.37305,0 3.54492,1.23046 1.17188,1.23047 1.17188,3.73047 z"
           style=""
           id="path966" />
        <path
           d="m 199.34375,144.71094 -3.95508,5.32226 4.16016,5.61524 h -2.11914 l -3.1836,-4.29688 -3.18359,4.29688 h -2.11914 l 4.24805,-5.72266 -3.88672,-5.21484 h 2.11914 l 2.90039,3.89648 2.90039,-3.89648 z"
           style=""
           id="path968" />
        <path
           d="m 202.68359,153.98828 h 3.22266 v -11.12305 l -3.50586,0.70313 v -1.79688 l 3.48633,-0.70312 h 1.97265 v 12.91992 h 3.22266 v 1.66016 h -8.39844 z"
           style=""
           id="path970" />
        <path
           d="m 10.476563,174.36914 h 5.263671 v 1.60156 h -5.263671 z"
           style=""
           id="path972" />
        <path
           d="m 17.703125,174.36914 h 5.263672 v 1.60156 h -5.263672 z"
           style=""
           id="path974" />
        <path
           d="m 24.929687,174.36914 h 5.263672 v 1.60156 h -5.263672 z"
           style=""
           id="path976" />
        <path
           d="m 32.15625,174.36914 h 5.263672 v 1.60156 H 32.15625 Z"
           style=""
           id="path978" />
        <path
           d="m 39.382812,174.36914 h 5.263672 v 1.60156 h -5.263672 z"
           style=""
           id="path980" />
        <path
           d="m 46.609375,174.36914 h 5.263672 v 1.60156 h -5.263672 z"
           style=""
           id="path982" />
        <path
           d="m 53.835937,174.36914 h 5.263672 v 1.60156 h -5.263672 z"
           style=""
           id="path984" />
        <path
           d="m 61.0625,174.36914 h 5.263672 v 1.60156 H 61.0625 Z"
           style=""
           id="path986" />
        <path
           d="m 68.289062,174.36914 h 5.263672 v 1.60156 h -5.263672 z"
           style=""
           id="path988" />
        <path
           d="m 75.515625,174.36914 h 5.263672 v 1.60156 h -5.263672 z"
           style=""
           id="path990" />
        <path
           d="m 82.742187,174.36914 h 5.263672 v 1.60156 h -5.263672 z"
           style=""
           id="path992" />
        <path
           d="m 89.96875,174.36914 h 5.263672 v 1.60156 H 89.96875 Z"
           style=""
           id="path994" />
        <path
           d="m 97.195312,174.36914 h 5.263668 v 1.60156 h -5.263668 z"
           style=""
           id="path996" />
        <path
           d="m 104.42188,174.36914 h 5.26367 v 1.60156 h -5.26367 z"
           style=""
           id="path998" />
        <path
           d="m 111.64844,174.36914 h 5.26367 v 1.60156 h -5.26367 z"
           style=""
           id="path1000" />
        <path
           d="m 118.875,174.36914 h 5.26367 v 1.60156 H 118.875 Z"
           style=""
           id="path1002" />
        <path
           d="m 126.10156,174.36914 h 5.26367 v 1.60156 h -5.26367 z"
           style=""
           id="path1004" />
        <path
           d="m 133.32812,174.36914 h 5.26368 v 1.60156 h -5.26368 z"
           style=""
           id="path1006" />
        <path
           d="m 140.55469,174.36914 h 5.26367 v 1.60156 h -5.26367 z"
           style=""
           id="path1008" />
        <path
           d="m 147.78125,174.36914 h 5.26367 v 1.60156 h -5.26367 z"
           style=""
           id="path1010" />
        <path
           d="m 155.00781,174.36914 h 5.26367 v 1.60156 h -5.26367 z"
           style=""
           id="path1012" />
        <path
           d="m 162.23437,174.36914 h 5.26368 v 1.60156 h -5.26368 z"
           style=""
           id="path1014" />
        <path
           d="m 169.46094,174.36914 h 5.26367 v 1.60156 h -5.26367 z"
           style=""
           id="path1016" />
        <path
           d="m 176.6875,174.36914 h 5.26367 v 1.60156 h -5.26367 z"
           style=""
           id="path1018" />
        <path
           d="m 183.91406,174.36914 h 5.26367 v 1.60156 h -5.26367 z"
           style=""
           id="path1020" />
        <path
           d="m 191.14062,174.36914 h 5.26368 v 1.60156 h -5.26368 z"
           style=""
           id="path1022" />
        <path
           d="m 198.36719,174.36914 h 5.26367 v 1.60156 h -5.26367 z"
           style=""
           id="path1024" />
        <path
           d="m 205.59375,174.36914 h 5.26367 v 1.60156 h -5.26367 z"
           style=""
           id="path1026" />
        <path
           d="m 212.82031,174.36914 h 5.26367 v 1.60156 h -5.26367 z"
           style=""
           id="path1028" />
        <path
           d="m 220.04687,174.36914 h 5.26368 v 1.60156 h -5.26368 z"
           style=""
           id="path1030" />
        <path
           d="m 227.27344,174.36914 h 5.26367 v 1.60156 h -5.26367 z"
           style=""
           id="path1032" />
        <path
           d="m 234.5,174.36914 h 5.26367 v 1.60156 H 234.5 Z"
           style=""
           id="path1034" />
        <path
           d="m 241.72656,174.36914 h 5.26367 v 1.60156 h -5.26367 z"
           style=""
           id="path1036" />
        <path
           d="m 248.95312,174.36914 h 5.26368 v 1.60156 h -5.26368 z"
           style=""
           id="path1038" />
        <path
           d="m 256.17969,174.36914 h 5.26367 v 1.60156 h -5.26367 z"
           style=""
           id="path1040" />
      </g>
      <g
         aria-label="Totale: 30"
         transform="matrix(7.3353533,0,0,7.3353533,537.33059,118.94024)"
         style="font-style:normal;font-weight:normal;font-size:20px;line-height:1.25;font-family:sans-serif;letter-spacing:0px;word-spacing:0px;fill:#000000;fill-opacity:1;stroke:none"
         id="flowRoot5353">
        <path
           d="m 19.597656,185.06836 h 13.4375 v 2.8418 h -4.833984 v 11.73828 h -3.759766 v -11.73828 h -4.84375 z"
           style="font-style:normal;font-variant:normal;font-weight:bold;font-stretch:normal;font-size:20px;font-family:sans-serif;-inkscape-font-specification:'sans-serif Bold'"
           id="path895" />
        <path
           d="m 37.361328,190.94727 q -1.162109,0 -1.777344,0.83984 -0.605468,0.83008 -0.605468,2.40234 0,1.57227 0.605468,2.41211 0.615235,0.83008 1.777344,0.83008 1.142578,0 1.748047,-0.83008 0.605469,-0.83984 0.605469,-2.41211 0,-1.57226 -0.605469,-2.40234 -0.605469,-0.83984 -1.748047,-0.83984 z m 0,-2.5 q 2.822266,0 4.404297,1.52343 1.591797,1.52344 1.591797,4.21875 0,2.69532 -1.591797,4.21875 -1.582031,1.52344 -4.404297,1.52344 -2.832031,0 -4.433594,-1.52344 -1.591797,-1.52343 -1.591797,-4.21875 0,-2.69531 1.591797,-4.21875 1.601563,-1.52343 4.433594,-1.52343 z"
           style="font-style:normal;font-variant:normal;font-weight:bold;font-stretch:normal;font-size:20px;font-family:sans-serif;-inkscape-font-specification:'sans-serif Bold'"
           id="path897" />
        <path
           d="m 49.724609,185.60547 v 3.10547 h 3.603516 v 2.5 h -3.603516 v 4.63867 q 0,0.76172 0.302735,1.03516 0.302734,0.26367 1.201172,0.26367 h 1.796875 v 2.5 h -2.998047 q -2.070313,0 -2.939453,-0.85938 -0.859375,-0.86914 -0.859375,-2.93945 v -4.63867 h -1.738282 v -2.5 h 1.738282 v -3.10547 z"
           style="font-style:normal;font-variant:normal;font-weight:bold;font-stretch:normal;font-size:20px;font-family:sans-serif;-inkscape-font-specification:'sans-serif Bold'"
           id="path899" />
        <path
           d="m 60.378906,194.72656 q -1.09375,0 -1.65039,0.3711 -0.546875,0.37109 -0.546875,1.09375 0,0.66406 0.439453,1.04492 0.449218,0.37109 1.240234,0.37109 0.986328,0 1.660156,-0.70312 0.673828,-0.71289 0.673828,-1.77735 v -0.40039 z m 5.341797,-1.31836 v 6.24024 h -3.525391 v -1.6211 q -0.703125,0.9961 -1.582031,1.45508 -0.878906,0.44922 -2.138672,0.44922 -1.699218,0 -2.763672,-0.98633 -1.054687,-0.99609 -1.054687,-2.57812 0,-1.92383 1.318359,-2.82227 1.328125,-0.89844 4.160157,-0.89844 h 2.060546 v -0.27343 q 0,-0.83008 -0.654296,-1.21094 -0.654297,-0.39063 -2.041016,-0.39063 -1.123047,0 -2.089844,0.22461 -0.966797,0.22461 -1.796875,0.67383 v -2.66601 q 1.123047,-0.27344 2.25586,-0.41016 1.132812,-0.14648 2.265625,-0.14648 2.958984,0 4.267578,1.17187 1.318359,1.16211 1.318359,3.78906 z"
           style="font-style:normal;font-variant:normal;font-weight:bold;font-stretch:normal;font-size:20px;font-family:sans-serif;-inkscape-font-specification:'sans-serif Bold'"
           id="path901" />
        <path
           d="m 68.992187,184.45312 h 3.496094 v 15.19532 h -3.496094 z"
           style="font-style:normal;font-variant:normal;font-weight:bold;font-stretch:normal;font-size:20px;font-family:sans-serif;-inkscape-font-specification:'sans-serif Bold'"
           id="path903" />
        <path
           d="m 86.785156,194.15039 v 0.99609 h -8.173828 q 0.126953,1.23047 0.888672,1.84571 0.761719,0.61523 2.128906,0.61523 1.103516,0 2.25586,-0.32226 1.162109,-0.33204 2.382812,-0.9961 v 2.69531 q -1.240234,0.46875 -2.480469,0.70313 -1.240234,0.24414 -2.480468,0.24414 -2.96875,0 -4.619141,-1.50391 -1.640625,-1.51367 -1.640625,-4.23828 0,-2.67578 1.611328,-4.20898 1.621094,-1.5332 4.453125,-1.5332 2.578125,0 4.121094,1.55273 1.552734,1.55273 1.552734,4.15039 z m -3.59375,-1.16211 q 0,-0.99609 -0.585937,-1.60156 -0.576172,-0.61524 -1.513672,-0.61524 -1.015625,0 -1.650391,0.57618 -0.634765,0.5664 -0.791015,1.64062 z"
           style="font-style:normal;font-variant:normal;font-weight:bold;font-stretch:normal;font-size:20px;font-family:sans-serif;-inkscape-font-specification:'sans-serif Bold'"
           id="path905" />
        <path
           d="m 89.978516,188.71094 h 3.52539 v 3.77929 h -3.52539 z m 0,7.1582 h 3.52539 v 3.7793 h -3.52539 z"
           style="font-style:normal;font-variant:normal;font-weight:bold;font-stretch:normal;font-size:20px;font-family:sans-serif;-inkscape-font-specification:'sans-serif Bold'"
           id="path907" />
        <path
           d="m 112.01953,191.78711 q 1.47461,0.38086 2.23633,1.32812 0.77148,0.9375 0.77148,2.39258 0,2.16797 -1.66015,3.30078 -1.66016,1.12305 -4.84375,1.12305 -1.12305,0 -2.25586,-0.18555 -1.12305,-0.17578 -2.22656,-0.53711 v -2.90039 q 1.05468,0.52735 2.08984,0.80078 1.04492,0.26368 2.05078,0.26368 1.49414,0 2.28516,-0.51758 0.80078,-0.51758 0.80078,-1.48438 0,-0.99609 -0.82031,-1.5039 -0.81055,-0.51758 -2.40235,-0.51758 h -1.5039 v -2.42188 h 1.58203 q 1.41601,0 2.10937,-0.43945 0.69336,-0.44922 0.69336,-1.35742 0,-0.83984 -0.67383,-1.29883 -0.67382,-0.45898 -1.90429,-0.45898 -0.90821,0 -1.83594,0.20507 -0.92774,0.20508 -1.8457,0.60547 v -2.7539 q 1.11328,-0.3125 2.20703,-0.46875 1.09375,-0.15625 2.14843,-0.15625 2.8418,0 4.24805,0.9375 1.41602,0.92773 1.41602,2.80273 0,1.2793 -0.67383,2.09961 -0.67383,0.81055 -1.99219,1.14258 z"
           style="font-style:normal;font-variant:normal;font-weight:bold;font-stretch:normal;font-size:20px;font-family:sans-serif;-inkscape-font-specification:'sans-serif Bold'"
           id="path909" />
        <path
           d="m 125.80859,192.34375 q 0,-2.73438 -0.51757,-3.84766 -0.50782,-1.12304 -1.71875,-1.12304 -1.21094,0 -1.72852,1.12304 -0.51758,1.11328 -0.51758,3.84766 0,2.76367 0.51758,3.89648 0.51758,1.13282 1.72852,1.13282 1.20117,0 1.71875,-1.13282 0.51757,-1.13281 0.51757,-3.89648 z m 3.75977,0.0293 q 0,3.62304 -1.5625,5.5957 -1.5625,1.96289 -4.43359,1.96289 -2.88086,0 -4.44336,-1.96289 -1.5625,-1.97266 -1.5625,-5.5957 0,-3.63282 1.5625,-5.59571 1.5625,-1.97265 4.44336,-1.97265 2.87109,0 4.43359,1.97265 1.5625,1.96289 1.5625,5.59571 z"
           style="font-style:normal;font-variant:normal;font-weight:bold;font-stretch:normal;font-size:20px;font-family:sans-serif;-inkscape-font-specification:'sans-serif Bold'"
           id="path911" />
        <path
           d="m 143.09375,198.84766 q -0.92773,0.53711 -1.94336,0.81054 -1.00586,0.27344 -2.09961,0.27344 -2.55859,0 -4.31641,-1.26953 -1.74804,-1.2793 -2.48046,-3.67188 h -2.11914 l 0.85937,-1.90429 h 0.95703 q -0.01,-0.13672 -0.0195,-0.28321 0,-0.15625 0,-0.42968 0,-0.28321 0,-0.43946 0.01,-0.15625 0.0195,-0.30273 h -1.8164 l 0.85937,-1.9043 h 1.25977 q 0.75195,-2.40234 2.49023,-3.66211 1.74805,-1.25976 4.30664,-1.25976 1.09375,0 2.09961,0.27343 1.01563,0.27344 1.94336,0.81055 v 3.01758 q -0.79102,-0.76172 -1.68945,-1.14258 -0.89844,-0.39062 -1.86524,-0.39062 -1.24023,0 -2.11914,0.60547 -0.86914,0.5957 -1.30859,1.74804 h 5.26367 l -0.83984,1.9043 h -4.81446 q -0.0195,0.15625 -0.0293,0.33203 0,0.17578 0,0.52734 0,0.12696 0,0.28321 0.01,0.14648 0.0195,0.3125 h 4.18945 l -0.86914,1.90429 h -2.91992 q 0.48828,1.19141 1.33789,1.78711 0.85937,0.59571 2.08984,0.59571 0.9668,0 1.84571,-0.38086 0.88867,-0.39063 1.70898,-1.16211 z"
           style="font-style:normal;font-variant:normal;font-weight:bold;font-stretch:normal;font-size:20px;font-family:sans-serif;-inkscape-font-specification:'sans-serif Bold'"
           id="path913" />
      </g>
      <g
         aria-label="0001"
         transform="matrix(7.3353533,0,0,7.3353533,637.4109,-2065.1072)"
         style="font-style:normal;font-variant:normal;font-weight:normal;font-stretch:normal;font-size:26.66666603px;line-height:1.25;font-family:sans-serif;-inkscape-font-specification:sans-serif;letter-spacing:0px;word-spacing:0px;fill:#000000;fill-opacity:1;stroke:none"
         id="flowRoot5361">
        <path
           d="m 75.976562,313.33854 q -2.03125,0 -3.059895,2.00521 -1.015625,1.99219 -1.015625,6.0026 0,3.9974 1.015625,6.00261 1.028645,1.99219 3.059895,1.99219 2.044271,0 3.059896,-1.99219 1.028646,-2.00521 1.028646,-6.00261 0,-4.01041 -1.028646,-6.0026 -1.015625,-2.00521 -3.059896,-2.00521 z m 0,-2.08333 q 3.268229,0 4.986979,2.59114 1.731771,2.57813 1.731771,7.5 0,4.90886 -1.731771,7.5 -1.71875,2.57813 -4.986979,2.57813 -3.268229,0 -5,-2.57813 -1.71875,-2.59114 -1.71875,-7.5 0,-4.92187 1.71875,-7.5 1.731771,-2.59114 5,-2.59114 z"
           style=""
           id="path886" />
        <path
           d="m 92.955728,313.33854 q -2.03125,0 -3.059895,2.00521 -1.015625,1.99219 -1.015625,6.0026 0,3.9974 1.015625,6.00261 1.028645,1.99219 3.059895,1.99219 2.044271,0 3.059896,-1.99219 1.028646,-2.00521 1.028646,-6.00261 0,-4.01041 -1.028646,-6.0026 -1.015625,-2.00521 -3.059896,-2.00521 z m 0,-2.08333 q 3.268229,0 4.986979,2.59114 1.731771,2.57813 1.731771,7.5 0,4.90886 -1.731771,7.5 -1.71875,2.57813 -4.986979,2.57813 -3.268229,0 -5,-2.57813 -1.71875,-2.59114 -1.71875,-7.5 0,-4.92187 1.71875,-7.5 1.731771,-2.59114 5,-2.59114 z"
           style=""
           id="path888" />
        <path
           d="m 109.93489,313.33854 q -2.03125,0 -3.05989,2.00521 -1.01563,1.99219 -1.01563,6.0026 0,3.9974 1.01563,6.00261 1.02864,1.99219 3.05989,1.99219 2.04428,0 3.0599,-1.99219 1.02865,-2.00521 1.02865,-6.00261 0,-4.01041 -1.02865,-6.0026 -1.01562,-2.00521 -3.0599,-2.00521 z m 0,-2.08333 q 3.26823,0 4.98698,2.59114 1.73177,2.57813 1.73177,7.5 0,4.90886 -1.73177,7.5 -1.71875,2.57813 -4.98698,2.57813 -3.26822,0 -5,-2.57813 -1.71875,-2.59114 -1.71875,-7.5 0,-4.92187 1.71875,-7.5 1.73178,-2.59114 5,-2.59114 z"
           style=""
           id="path890" />
        <path
           d="m 121.74479,328.83333 h 4.29688 V 314.0026 l -4.67448,0.9375 v -2.39583 l 4.64843,-0.9375 h 2.63021 v 17.22656 h 4.29688 v 2.21354 h -11.19792 z"
           style=""
           id="path892" />
      </g>
    </g>
    <g
       id="Livello_3"
       transform="matrix(0.03606961,0,0,0.03606961,-3.8946085,-3.3963922)" />
  </g>
  <style
     id="style88"
     type="text/css">
	.st0{display:none;}
	.st1{fill:none;stroke:#000000;stroke-miterlimit:10;}
	.st2{fill:#1B55A3;}
	.st3{fill:none;stroke:#000000;stroke-width:2.5;stroke-miterlimit:10;}
</style>
</svg>
